<svg xmlns="http://www.w3.org/2000/svg" xmlns:xlink="http://www.w3.org/1999/xlink" width="375" viewBox="0 0 375 375" height="375" version="1.0"><defs><clipPath id="a"><path d="M 86.523438 82.316406 L 288 82.316406 L 288 292.316406 L 86.523438 292.316406 Z M 86.523438 82.316406"/></clipPath><clipPath id="b"><path d="M 237.074219 152.316406 L 230.074219 152.316406 L 230.074219 159.316406 L 237.074219 159.316406 Z M 237.074219 138.316406 L 230.074219 138.316406 L 230.074219 145.316406 L 237.074219 145.316406 Z M 237.074219 117.316406 L 230.074219 117.316406 L 230.074219 131.316406 L 237.074219 131.316406 Z M 205.5625 180.316406 L 198.5625 180.316406 L 198.5625 187.316406 L 205.5625 187.316406 Z M 191.558594 180.316406 L 184.558594 180.316406 L 184.558594 187.316406 L 191.558594 187.316406 Z M 170.550781 236.316406 L 163.550781 236.316406 L 163.550781 243.316406 L 170.550781 243.316406 Z M 170.550781 222.316406 L 163.550781 222.316406 L 163.550781 229.316406 L 170.550781 229.316406 Z M 93.703125 146.382812 C 93.976562 147.269531 94.59375 147.996094 95.425781 148.433594 C 96.261719 148.855469 97.203125 148.9375 98.09375 148.652344 C 99.941406 148.0625 100.953125 146.082031 100.363281 144.25 C 99.886719 142.757812 98.503906 141.816406 97.027344 141.816406 C 96.671875 141.816406 96.316406 141.871094 95.960938 141.980469 C 95.070312 142.265625 94.347656 142.882812 93.921875 143.714844 C 93.484375 144.550781 93.417969 145.492188 93.703125 146.382812 Z M 146.605469 136.238281 C 147.535156 136.988281 148 138.164062 147.863281 139.355469 C 147.765625 140.160156 147.699219 140.980469 147.699219 141.816406 C 147.699219 142.648438 147.765625 143.46875 147.863281 144.277344 C 147.875 144.359375 147.863281 144.441406 147.863281 144.523438 C 147.863281 144.5625 147.890625 144.589844 147.890625 144.632812 C 147.890625 144.6875 147.863281 144.742188 147.863281 144.78125 C 147.847656 145.207031 147.78125 145.617188 147.628906 146 C 147.628906 146.011719 147.617188 146.027344 147.617188 146.039062 C 147.464844 146.382812 147.246094 146.710938 146.988281 146.996094 C 146.917969 147.066406 146.863281 147.132812 146.796875 147.203125 C 146.726562 147.257812 146.671875 147.339844 146.605469 147.394531 L 136.375 155.816406 L 140.410156 162.816406 L 152.839844 158.152344 C 153.949219 157.742188 155.207031 157.921875 156.164062 158.632812 C 157.53125 159.65625 158.96875 160.492188 160.417969 161.105469 C 161.511719 161.585938 162.304688 162.582031 162.496094 163.757812 L 164.671875 176.816406 L 172.753906 176.816406 L 174.929688 163.757812 C 175.121094 162.570312 175.898438 161.585938 176.992188 161.105469 C 178.445312 160.492188 179.878906 159.65625 181.261719 158.632812 C 182.21875 157.90625 183.476562 157.742188 184.585938 158.152344 L 197.015625 162.816406 L 201.050781 155.816406 L 190.808594 147.394531 C 189.890625 146.640625 189.414062 145.464844 189.550781 144.277344 C 189.660156 143.46875 189.714844 142.648438 189.714844 141.816406 C 189.714844 140.980469 189.660156 140.160156 189.550781 139.355469 C 189.414062 138.164062 189.890625 136.988281 190.808594 136.238281 L 201.050781 127.816406 L 197.015625 120.816406 L 184.585938 125.476562 C 183.464844 125.886719 182.203125 125.722656 181.261719 125 C 179.878906 123.972656 178.445312 123.140625 176.992188 122.523438 C 175.898438 122.046875 175.121094 121.0625 174.929688 119.871094 L 172.753906 106.816406 L 164.671875 106.816406 L 162.496094 119.871094 C 162.304688 121.0625 161.511719 122.046875 160.417969 122.523438 C 158.96875 123.140625 157.53125 123.972656 156.164062 125 C 155.207031 125.722656 153.949219 125.886719 152.839844 125.476562 L 140.410156 120.816406 L 136.375 127.816406 Z M 174.054688 99.816406 L 175.707031 99.816406 C 177.433594 99.816406 178.882812 101.046875 179.167969 102.742188 L 181.535156 116.933594 C 182.3125 117.328125 183.082031 117.78125 183.847656 118.273438 L 197.332031 113.226562 C 198.929688 112.625 200.738281 113.269531 201.597656 114.757812 L 203.074219 117.316406 L 216.066406 117.316406 C 216.066406 116.589844 216.300781 115.878906 216.722656 115.277344 L 227.773438 99.816406 L 205.5625 99.816406 C 203.636719 99.816406 202.0625 98.242188 202.0625 96.316406 L 202.0625 89.316406 L 174.054688 89.316406 Z M 223.070312 118.4375 L 223.070312 158.152344 L 232.875 171.210938 C 233.328125 171.824219 233.574219 172.5625 233.574219 173.316406 L 233.574219 187.316406 C 233.574219 188.75 232.699219 190.035156 231.371094 190.570312 L 216.066406 196.679688 L 216.066406 220.375 C 217.695312 221.386719 219.351562 222.398438 221.003906 223.394531 C 221.003906 223.410156 221.019531 223.410156 221.019531 223.410156 C 221.03125 223.410156 221.03125 223.421875 221.03125 223.421875 C 231.753906 229.945312 242.203125 235.863281 244.40625 236.34375 L 261.582031 236.316406 L 261.582031 218.816406 C 261.582031 217.886719 261.953125 216.996094 262.609375 216.339844 L 263.964844 214.988281 C 258.164062 214.140625 252.816406 211.5 248.605469 207.289062 C 247.238281 205.921875 247.238281 203.707031 248.605469 202.339844 C 249.972656 200.972656 252.1875 200.972656 253.554688 202.339844 C 257.414062 206.195312 262.542969 208.316406 267.984375 208.316406 L 268.585938 208.316406 L 268.585938 197.816406 C 268.585938 195.886719 270.160156 194.316406 272.085938 194.316406 L 280.703125 194.316406 L 268.886719 167.738281 C 268.300781 166.410156 268.585938 164.867188 269.613281 163.839844 C 273.46875 159.984375 275.589844 154.859375 275.589844 149.417969 C 275.589844 128.785156 264.128906 110.246094 245.679688 101.019531 L 238.183594 97.285156 Z M 214.425781 227.578125 C 213.195312 226.828125 212.019531 226.101562 210.707031 225.28125 C 209.679688 224.640625 209.066406 223.519531 209.066406 222.316406 L 209.066406 208.316406 L 198.5625 208.316406 L 198.5625 227.867188 L 208.367188 237.667969 Z M 206.589844 266.789062 C 205.933594 266.132812 205.5625 265.246094 205.5625 264.316406 L 205.5625 253.816406 L 198.5625 253.816406 L 198.5625 285.316406 L 225.121094 285.316406 Z M 154.960938 285.316406 L 163.550781 275.5 L 163.550781 250.316406 L 170.550781 250.316406 L 170.550781 267.5 L 177.554688 259.503906 L 177.554688 208.316406 L 156.546875 208.316406 L 156.546875 257.316406 C 156.546875 258.246094 156.179688 259.132812 155.523438 259.789062 L 129.988281 285.316406 Z M 164.261719 285.316406 L 191.558594 285.316406 L 191.558594 253.816406 L 184.558594 253.816406 L 184.558594 260.816406 C 184.558594 261.664062 184.242188 262.484375 183.695312 263.125 L 170.550781 278.136719 L 170.550781 278.316406 L 170.386719 278.316406 Z M 191.558594 229.316406 L 191.558594 208.316406 L 184.558594 208.316406 L 184.558594 246.816406 L 205.5625 246.816406 L 205.5625 244.765625 L 192.585938 231.789062 C 191.929688 231.132812 191.558594 230.246094 191.558594 229.316406 Z M 199.300781 145.316406 L 207.792969 152.300781 C 209.105469 153.382812 209.449219 155.269531 208.601562 156.757812 L 207.125 159.316406 L 216.066406 159.316406 L 216.066406 145.316406 Z M 207.792969 131.328125 L 199.300781 138.316406 L 216.066406 138.316406 L 216.066406 124.316406 L 207.125 124.316406 L 208.601562 126.871094 C 209.449219 128.363281 209.105469 130.25 207.792969 131.328125 Z M 170.550781 201.316406 L 209.066406 201.316406 L 209.066406 194.316406 C 209.066406 192.878906 209.941406 191.59375 211.269531 191.0625 L 220.636719 187.316406 L 212.566406 187.316406 L 212.566406 180.316406 L 226.570312 180.316406 L 226.570312 174.476562 L 220.335938 166.164062 C 220.074219 166.21875 219.84375 166.316406 219.570312 166.316406 L 203.074219 166.316406 L 201.597656 168.871094 C 200.738281 170.363281 198.929688 171.003906 197.332031 170.402344 L 183.847656 165.359375 C 183.082031 165.851562 182.3125 166.300781 181.535156 166.699219 L 179.167969 180.890625 C 178.882812 182.585938 177.433594 183.816406 175.707031 183.816406 L 170.550781 183.816406 Z M 104.03125 99.816406 C 104.03125 101.742188 105.601562 103.316406 107.53125 103.316406 C 109.457031 103.316406 111.03125 101.742188 111.03125 99.816406 C 111.03125 97.886719 109.457031 96.316406 107.53125 96.316406 C 105.601562 96.316406 104.03125 97.886719 104.03125 99.816406 Z M 111.03125 187.316406 C 111.03125 185.386719 109.457031 183.816406 107.53125 183.816406 C 105.601562 183.816406 104.03125 185.386719 104.03125 187.316406 C 104.03125 189.242188 105.601562 190.816406 107.53125 190.816406 C 109.457031 190.816406 111.03125 189.242188 111.03125 187.316406 Z M 87.03125 148.527344 C 86.167969 145.847656 86.414062 143.003906 87.6875 140.515625 C 88.972656 138.015625 91.144531 136.167969 93.8125 135.320312 C 99.214844 133.597656 104.988281 136.484375 106.886719 141.773438 L 140.710938 141.253906 C 140.722656 140.996094 140.722656 140.734375 140.738281 140.476562 L 129.632812 131.328125 C 128.578125 130.46875 128.183594 129.085938 128.484375 127.816406 L 107.53125 127.816406 C 105.601562 127.816406 104.03125 126.242188 104.03125 124.316406 L 104.03125 109.671875 C 99.96875 108.222656 97.027344 104.367188 97.027344 99.816406 C 97.027344 94.019531 101.730469 89.316406 107.53125 89.316406 C 113.328125 89.316406 118.035156 94.019531 118.035156 99.816406 C 118.035156 104.367188 115.09375 108.222656 111.03125 109.671875 L 111.03125 120.816406 L 132.039062 120.816406 C 132.136719 120.816406 132.203125 120.855469 132.300781 120.871094 L 135.828125 114.757812 C 136.6875 113.269531 138.480469 112.625 140.082031 113.226562 L 153.578125 118.273438 C 154.332031 117.78125 155.113281 117.34375 155.890625 116.933594 L 158.257812 102.742188 C 158.53125 101.046875 159.992188 99.816406 161.703125 99.816406 L 167.050781 99.816406 L 167.050781 85.816406 C 167.050781 83.886719 168.625 82.316406 170.550781 82.316406 L 205.5625 82.316406 C 207.492188 82.316406 209.066406 83.886719 209.066406 85.816406 L 209.066406 92.816406 L 232.78125 92.816406 L 234.230469 90.777344 C 235.230469 89.382812 237.101562 88.917969 238.648438 89.683594 L 248.796875 94.757812 C 269.640625 105.175781 282.589844 126.121094 282.589844 149.417969 C 282.589844 155.910156 280.347656 162.0625 276.21875 166.984375 L 287.105469 191.472656 C 288.074219 193.644531 287.871094 196.132812 286.570312 198.128906 C 285.285156 200.125 283.082031 201.316406 280.703125 201.316406 L 275.589844 201.316406 L 275.589844 211.816406 C 275.589844 212.28125 275.492188 212.746094 275.316406 213.167969 C 275.136719 213.59375 274.878906 213.976562 274.5625 214.289062 L 268.585938 220.265625 L 268.585938 239.816406 C 268.585938 241.742188 267.011719 243.316406 265.085938 243.316406 L 244.078125 243.316406 C 241.644531 243.316406 233.628906 239.214844 220.402344 231.230469 L 212.566406 244.285156 L 212.566406 262.867188 L 236.050781 286.339844 C 237.046875 287.339844 237.347656 288.84375 236.800781 290.15625 C 236.269531 291.46875 234.996094 292.316406 233.574219 292.316406 L 121.535156 292.316406 C 120.113281 292.316406 118.839844 291.46875 118.308594 290.15625 C 117.761719 288.84375 118.0625 287.339844 119.058594 286.339844 L 149.546875 255.867188 L 149.546875 204.816406 C 149.546875 202.886719 151.117188 201.316406 153.046875 201.316406 L 163.550781 201.316406 L 163.550781 183.816406 L 161.703125 183.816406 C 159.992188 183.816406 158.53125 182.585938 158.257812 180.890625 L 155.890625 166.699219 C 155.113281 166.289062 154.332031 165.851562 153.578125 165.359375 L 142.378906 169.542969 L 142.542969 187.289062 C 142.554688 188.21875 142.1875 189.121094 141.53125 189.777344 C 140.875 190.445312 139.972656 190.816406 139.042969 190.816406 L 118.035156 190.816406 C 117.816406 190.816406 117.636719 190.734375 117.433594 190.691406 C 116.011719 194.820312 112.125 197.816406 107.53125 197.816406 C 101.730469 197.816406 97.027344 193.113281 97.027344 187.316406 C 97.027344 181.519531 101.730469 176.816406 107.53125 176.816406 C 112.125 176.816406 116.011719 179.808594 117.433594 183.9375 C 117.636719 183.898438 117.816406 183.816406 118.035156 183.816406 L 135.511719 183.816406 L 135.363281 168.078125 L 128.824219 156.757812 C 127.964844 155.269531 128.304688 153.382812 129.632812 152.300781 L 134.433594 148.351562 L 106.902344 148.773438 C 105.847656 151.769531 103.480469 154.269531 100.242188 155.308594 C 99.1875 155.652344 98.09375 155.816406 97.027344 155.816406 C 95.371094 155.816406 93.730469 155.433594 92.226562 154.652344 C 89.738281 153.367188 87.878906 151.195312 87.03125 148.527344 Z M 161.703125 141.816406 C 161.703125 145.671875 164.847656 148.816406 168.707031 148.816406 C 172.578125 148.816406 175.707031 145.671875 175.707031 141.816406 C 175.707031 137.960938 172.578125 134.816406 168.707031 134.816406 C 164.847656 134.816406 161.703125 137.960938 161.703125 141.816406 Z M 154.699219 141.816406 C 154.699219 134.089844 160.992188 127.816406 168.707031 127.816406 C 176.433594 127.816406 182.710938 134.089844 182.710938 141.816406 C 182.710938 149.539062 176.433594 155.816406 168.707031 155.816406 C 160.992188 155.816406 154.699219 149.539062 154.699219 141.816406 Z M 247.578125 166.316406 C 247.578125 164.386719 249.152344 162.816406 251.082031 162.816406 L 258.082031 162.816406 L 258.082031 155.816406 C 258.082031 153.886719 259.65625 152.316406 261.582031 152.316406 C 263.511719 152.316406 265.085938 153.886719 265.085938 155.816406 L 265.085938 166.316406 C 265.085938 168.242188 263.511719 169.816406 261.582031 169.816406 L 251.082031 169.816406 C 249.152344 169.816406 247.578125 168.242188 247.578125 166.316406 Z M 247.578125 166.316406"/></clipPath><clipPath id="c"><path d="M 237.074219 152.316406 L 230.074219 152.316406 L 230.074219 159.316406 L 237.074219 159.316406 Z M 237.074219 138.316406 L 230.074219 138.316406 L 230.074219 145.316406 L 237.074219 145.316406 Z M 237.074219 117.316406 L 230.074219 117.316406 L 230.074219 131.316406 L 237.074219 131.316406 Z M 205.5625 180.316406 L 198.5625 180.316406 L 198.5625 187.316406 L 205.5625 187.316406 Z M 191.558594 180.316406 L 184.558594 180.316406 L 184.558594 187.316406 L 191.558594 187.316406 Z M 170.550781 236.316406 L 163.550781 236.316406 L 163.550781 243.316406 L 170.550781 243.316406 Z M 170.550781 222.316406 L 163.550781 222.316406 L 163.550781 229.316406 L 170.550781 229.316406 Z M 93.703125 146.382812 C 93.976562 147.269531 94.59375 147.996094 95.425781 148.433594 C 96.261719 148.855469 97.203125 148.9375 98.09375 148.652344 C 99.941406 148.0625 100.953125 146.082031 100.363281 144.25 C 99.886719 142.757812 98.503906 141.816406 97.027344 141.816406 C 96.671875 141.816406 96.316406 141.871094 95.960938 141.980469 C 95.070312 142.265625 94.347656 142.882812 93.921875 143.714844 C 93.484375 144.550781 93.417969 145.492188 93.703125 146.382812 Z M 146.605469 136.238281 C 147.535156 136.988281 148 138.164062 147.863281 139.355469 C 147.765625 140.160156 147.699219 140.980469 147.699219 141.816406 C 147.699219 142.648438 147.765625 143.46875 147.863281 144.277344 C 147.875 144.359375 147.863281 144.441406 147.863281 144.523438 C 147.863281 144.5625 147.890625 144.589844 147.890625 144.632812 C 147.890625 144.6875 147.863281 144.742188 147.863281 144.78125 C 147.847656 145.207031 147.78125 145.617188 147.628906 146 C 147.628906 146.011719 147.617188 146.027344 147.617188 146.039062 C 147.464844 146.382812 147.246094 146.710938 146.988281 146.996094 C 146.917969 147.066406 146.863281 147.132812 146.796875 147.203125 C 146.726562 147.257812 146.671875 147.339844 146.605469 147.394531 L 136.375 155.816406 L 140.410156 162.816406 L 152.839844 158.152344 C 153.949219 157.742188 155.207031 157.921875 156.164062 158.632812 C 157.53125 159.65625 158.96875 160.492188 160.417969 161.105469 C 161.511719 161.585938 162.304688 162.582031 162.496094 163.757812 L 164.671875 176.816406 L 172.753906 176.816406 L 174.929688 163.757812 C 175.121094 162.570312 175.898438 161.585938 176.992188 161.105469 C 178.445312 160.492188 179.878906 159.65625 181.261719 158.632812 C 182.21875 157.90625 183.476562 157.742188 184.585938 158.152344 L 197.015625 162.816406 L 201.050781 155.816406 L 190.808594 147.394531 C 189.890625 146.640625 189.414062 145.464844 189.550781 144.277344 C 189.660156 143.46875 189.714844 142.648438 189.714844 141.816406 C 189.714844 140.980469 189.660156 140.160156 189.550781 139.355469 C 189.414062 138.164062 189.890625 136.988281 190.808594 136.238281 L 201.050781 127.816406 L 197.015625 120.816406 L 184.585938 125.476562 C 183.464844 125.886719 182.203125 125.722656 181.261719 125 C 179.878906 123.972656 178.445312 123.140625 176.992188 122.523438 C 175.898438 122.046875 175.121094 121.0625 174.929688 119.871094 L 172.753906 106.816406 L 164.671875 106.816406 L 162.496094 119.871094 C 162.304688 121.0625 161.511719 122.046875 160.417969 122.523438 C 158.96875 123.140625 157.53125 123.972656 156.164062 125 C 155.207031 125.722656 153.949219 125.886719 152.839844 125.476562 L 140.410156 120.816406 L 136.375 127.816406 Z M 174.054688 99.816406 L 175.707031 99.816406 C 177.433594 99.816406 178.882812 101.046875 179.167969 102.742188 L 181.535156 116.933594 C 182.3125 117.328125 183.082031 117.78125 183.847656 118.273438 L 197.332031 113.226562 C 198.929688 112.625 200.738281 113.269531 201.597656 114.757812 L 203.074219 117.316406 L 216.066406 117.316406 C 216.066406 116.589844 216.300781 115.878906 216.722656 115.277344 L 227.773438 99.816406 L 205.5625 99.816406 C 203.636719 99.816406 202.0625 98.242188 202.0625 96.316406 L 202.0625 89.316406 L 174.054688 89.316406 Z M 223.070312 118.4375 L 223.070312 158.152344 L 232.875 171.210938 C 233.328125 171.824219 233.574219 172.5625 233.574219 173.316406 L 233.574219 187.316406 C 233.574219 188.75 232.699219 190.035156 231.371094 190.570312 L 216.066406 196.679688 L 216.066406 220.375 C 217.695312 221.386719 219.351562 222.398438 221.003906 223.394531 C 221.003906 223.410156 221.019531 223.410156 221.019531 223.410156 C 221.03125 223.410156 221.03125 223.421875 221.03125 223.421875 C 231.753906 229.945312 242.203125 235.863281 244.40625 236.34375 L 261.582031 236.316406 L 261.582031 218.816406 C 261.582031 217.886719 261.953125 216.996094 262.609375 216.339844 L 263.964844 214.988281 C 258.164062 214.140625 252.816406 211.5 248.605469 207.289062 C 247.238281 205.921875 247.238281 203.707031 248.605469 202.339844 C 249.972656 200.972656 252.1875 200.972656 253.554688 202.339844 C 257.414062 206.195312 262.542969 208.316406 267.984375 208.316406 L 268.585938 208.316406 L 268.585938 197.816406 C 268.585938 195.886719 270.160156 194.316406 272.085938 194.316406 L 280.703125 194.316406 L 268.886719 167.738281 C 268.300781 166.410156 268.585938 164.867188 269.613281 163.839844 C 273.46875 159.984375 275.589844 154.859375 275.589844 149.417969 C 275.589844 128.785156 264.128906 110.246094 245.679688 101.019531 L 238.183594 97.285156 Z M 214.425781 227.578125 C 213.195312 226.828125 212.019531 226.101562 210.707031 225.28125 C 209.679688 224.640625 209.066406 223.519531 209.066406 222.316406 L 209.066406 208.316406 L 198.5625 208.316406 L 198.5625 227.867188 L 208.367188 237.667969 Z M 206.589844 266.789062 C 205.933594 266.132812 205.5625 265.246094 205.5625 264.316406 L 205.5625 253.816406 L 198.5625 253.816406 L 198.5625 285.316406 L 225.121094 285.316406 Z M 154.960938 285.316406 L 163.550781 275.5 L 163.550781 250.316406 L 170.550781 250.316406 L 170.550781 267.5 L 177.554688 259.503906 L 177.554688 208.316406 L 156.546875 208.316406 L 156.546875 257.316406 C 156.546875 258.246094 156.179688 259.132812 155.523438 259.789062 L 129.988281 285.316406 Z M 164.261719 285.316406 L 191.558594 285.316406 L 191.558594 253.816406 L 184.558594 253.816406 L 184.558594 260.816406 C 184.558594 261.664062 184.242188 262.484375 183.695312 263.125 L 170.550781 278.136719 L 170.550781 278.316406 L 170.386719 278.316406 Z M 191.558594 229.316406 L 191.558594 208.316406 L 184.558594 208.316406 L 184.558594 246.816406 L 205.5625 246.816406 L 205.5625 244.765625 L 192.585938 231.789062 C 191.929688 231.132812 191.558594 230.246094 191.558594 229.316406 Z M 199.300781 145.316406 L 207.792969 152.300781 C 209.105469 153.382812 209.449219 155.269531 208.601562 156.757812 L 207.125 159.316406 L 216.066406 159.316406 L 216.066406 145.316406 Z M 207.792969 131.328125 L 199.300781 138.316406 L 216.066406 138.316406 L 216.066406 124.316406 L 207.125 124.316406 L 208.601562 126.871094 C 209.449219 128.363281 209.105469 130.25 207.792969 131.328125 Z M 170.550781 201.316406 L 209.066406 201.316406 L 209.066406 194.316406 C 209.066406 192.878906 209.941406 191.59375 211.269531 191.0625 L 220.636719 187.316406 L 212.566406 187.316406 L 212.566406 180.316406 L 226.570312 180.316406 L 226.570312 174.476562 L 220.335938 166.164062 C 220.074219 166.21875 219.84375 166.316406 219.570312 166.316406 L 203.074219 166.316406 L 201.597656 168.871094 C 200.738281 170.363281 198.929688 171.003906 197.332031 170.402344 L 183.847656 165.359375 C 183.082031 165.851562 182.3125 166.300781 181.535156 166.699219 L 179.167969 180.890625 C 178.882812 182.585938 177.433594 183.816406 175.707031 183.816406 L 170.550781 183.816406 Z M 104.03125 99.816406 C 104.03125 101.742188 105.601562 103.316406 107.53125 103.316406 C 109.457031 103.316406 111.03125 101.742188 111.03125 99.816406 C 111.03125 97.886719 109.457031 96.316406 107.53125 96.316406 C 105.601562 96.316406 104.03125 97.886719 104.03125 99.816406 Z M 111.03125 187.316406 C 111.03125 185.386719 109.457031 183.816406 107.53125 183.816406 C 105.601562 183.816406 104.03125 185.386719 104.03125 187.316406 C 104.03125 189.242188 105.601562 190.816406 107.53125 190.816406 C 109.457031 190.816406 111.03125 189.242188 111.03125 187.316406 Z M 87.03125 148.527344 C 86.167969 145.847656 86.414062 143.003906 87.6875 140.515625 C 88.972656 138.015625 91.144531 136.167969 93.8125 135.320312 C 99.214844 133.597656 104.988281 136.484375 106.886719 141.773438 L 140.710938 141.253906 C 140.722656 140.996094 140.722656 140.734375 140.738281 140.476562 L 129.632812 131.328125 C 128.578125 130.46875 128.183594 129.085938 128.484375 127.816406 L 107.53125 127.816406 C 105.601562 127.816406 104.03125 126.242188 104.03125 124.316406 L 104.03125 109.671875 C 99.96875 108.222656 97.027344 104.367188 97.027344 99.816406 C 97.027344 94.019531 101.730469 89.316406 107.53125 89.316406 C 113.328125 89.316406 118.035156 94.019531 118.035156 99.816406 C 118.035156 104.367188 115.09375 108.222656 111.03125 109.671875 L 111.03125 120.816406 L 132.039062 120.816406 C 132.136719 120.816406 132.203125 120.855469 132.300781 120.871094 L 135.828125 114.757812 C 136.6875 113.269531 138.480469 112.625 140.082031 113.226562 L 153.578125 118.273438 C 154.332031 117.78125 155.113281 117.34375 155.890625 116.933594 L 158.257812 102.742188 C 158.53125 101.046875 159.992188 99.816406 161.703125 99.816406 L 167.050781 99.816406 L 167.050781 85.816406 C 167.050781 83.886719 168.625 82.316406 170.550781 82.316406 L 205.5625 82.316406 C 207.492188 82.316406 209.066406 83.886719 209.066406 85.816406 L 209.066406 92.816406 L 232.78125 92.816406 L 234.230469 90.777344 C 235.230469 89.382812 237.101562 88.917969 238.648438 89.683594 L 248.796875 94.757812 C 269.640625 105.175781 282.589844 126.121094 282.589844 149.417969 C 282.589844 155.910156 280.347656 162.0625 276.21875 166.984375 L 287.105469 191.472656 C 288.074219 193.644531 287.871094 196.132812 286.570312 198.128906 C 285.285156 200.125 283.082031 201.316406 280.703125 201.316406 L 275.589844 201.316406 L 275.589844 211.816406 C 275.589844 212.28125 275.492188 212.746094 275.316406 213.167969 C 275.136719 213.59375 274.878906 213.976562 274.5625 214.289062 L 268.585938 220.265625 L 268.585938 239.816406 C 268.585938 241.742188 267.011719 243.316406 265.085938 243.316406 L 244.078125 243.316406 C 241.644531 243.316406 233.628906 239.214844 220.402344 231.230469 L 212.566406 244.285156 L 212.566406 262.867188 L 236.050781 286.339844 C 237.046875 287.339844 237.347656 288.84375 236.800781 290.15625 C 236.269531 291.46875 234.996094 292.316406 233.574219 292.316406 L 121.535156 292.316406 C 120.113281 292.316406 118.839844 291.46875 118.308594 290.15625 C 117.761719 288.84375 118.0625 287.339844 119.058594 286.339844 L 149.546875 255.867188 L 149.546875 204.816406 C 149.546875 202.886719 151.117188 201.316406 153.046875 201.316406 L 163.550781 201.316406 L 163.550781 183.816406 L 161.703125 183.816406 C 159.992188 183.816406 158.53125 182.585938 158.257812 180.890625 L 155.890625 166.699219 C 155.113281 166.289062 154.332031 165.851562 153.578125 165.359375 L 142.378906 169.542969 L 142.542969 187.289062 C 142.554688 188.21875 142.1875 189.121094 141.53125 189.777344 C 140.875 190.445312 139.972656 190.816406 139.042969 190.816406 L 118.035156 190.816406 C 117.816406 190.816406 117.636719 190.734375 117.433594 190.691406 C 116.011719 194.820312 112.125 197.816406 107.53125 197.816406 C 101.730469 197.816406 97.027344 193.113281 97.027344 187.316406 C 97.027344 181.519531 101.730469 176.816406 107.53125 176.816406 C 112.125 176.816406 116.011719 179.808594 117.433594 183.9375 C 117.636719 183.898438 117.816406 183.816406 118.035156 183.816406 L 135.511719 183.816406 L 135.363281 168.078125 L 128.824219 156.757812 C 127.964844 155.269531 128.304688 153.382812 129.632812 152.300781 L 134.433594 148.351562 L 106.902344 148.773438 C 105.847656 151.769531 103.480469 154.269531 100.242188 155.308594 C 99.1875 155.652344 98.09375 155.816406 97.027344 155.816406 C 95.371094 155.816406 93.730469 155.433594 92.226562 154.652344 C 89.738281 153.367188 87.878906 151.195312 87.03125 148.527344 Z M 161.703125 141.816406 C 161.703125 145.671875 164.847656 148.816406 168.707031 148.816406 C 172.578125 148.816406 175.707031 145.671875 175.707031 141.816406 C 175.707031 137.960938 172.578125 134.816406 168.707031 134.816406 C 164.847656 134.816406 161.703125 137.960938 161.703125 141.816406 Z M 154.699219 141.816406 C 154.699219 134.089844 160.992188 127.816406 168.707031 127.816406 C 176.433594 127.816406 182.710938 134.089844 182.710938 141.816406 C 182.710938 149.539062 176.433594 155.816406 168.707031 155.816406 C 160.992188 155.816406 154.699219 149.539062 154.699219 141.816406 Z M 247.578125 166.316406 C 247.578125 164.386719 249.152344 162.816406 251.082031 162.816406 L 258.082031 162.816406 L 258.082031 155.816406 C 258.082031 153.886719 259.65625 152.316406 261.582031 152.316406 C 263.511719 152.316406 265.085938 153.886719 265.085938 155.816406 L 265.085938 166.316406 C 265.085938 168.242188 263.511719 169.816406 261.582031 169.816406 L 251.082031 169.816406 C 249.152344 169.816406 247.578125 168.242188 247.578125 166.316406"/></clipPath><clipPath id="d"><path d="M -18.867188 187.316406 L 187.113281 393.226562 L 393.113281 187.316406 L 187.113281 -18.597656 Z M -18.867188 187.316406"/></clipPath><linearGradient x1="-.102" gradientTransform="scale(233.93333 233.8525) rotate(-45 1.574 .085)" xmlns:xlink="http://www.w3.org/1999/xlink" y1="0" x2="1.143" gradientUnits="userSpaceOnUse" y2="0" xlink:type="simple" xlink:actuate="onLoad" id="e" xlink:show="other"><stop stop-color="#6DCDBD" offset="0"/><stop stop-color="#6DCDBD" offset=".063"/><stop stop-color="#6DCDBD" offset=".078"/><stop stop-color="#6DCDBE" offset=".086"/><stop stop-color="#6DCDBE" offset=".09"/><stop stop-color="#6DCDBF" offset=".094"/><stop stop-color="#6DCDC0" offset=".098"/><stop stop-color="#6DCDC0" offset=".102"/><stop stop-color="#6DCDC1" offset=".105"/><stop stop-color="#6DCDC1" offset=".109"/><stop stop-color="#6DCEC1" offset=".125"/><stop stop-color="#6DCEC2" offset=".129"/><stop stop-color="#6DCEC3" offset=".133"/><stop stop-color="#6DCEC4" offset=".137"/><stop stop-color="#6ECEC4" offset=".141"/><stop stop-color="#6ECEC5" offset=".145"/><stop stop-color="#6ECEC5" offset=".148"/><stop stop-color="#6ECEC5" offset=".156"/><stop stop-color="#6ECEC6" offset=".164"/><stop stop-color="#6ECEC7" offset=".168"/><stop stop-color="#6FCEC7" offset=".172"/><stop stop-color="#6FCEC8" offset=".18"/><stop stop-color="#6FCFC9" offset=".184"/><stop stop-color="#6FCFC9" offset=".188"/><stop stop-color="#70CFCA" offset=".191"/><stop stop-color="#70CFCA" offset=".195"/><stop stop-color="#70CFCB" offset=".199"/><stop stop-color="#70CFCC" offset=".203"/><stop stop-color="#71CFCD" offset=".207"/><stop stop-color="#71CFCD" offset=".211"/><stop stop-color="#71CFCE" offset=".219"/><stop stop-color="#71D0CF" offset=".223"/><stop stop-color="#71D0CF" offset=".227"/><stop stop-color="#72D0D0" offset=".23"/><stop stop-color="#72D0D1" offset=".234"/><stop stop-color="#73D0D2" offset=".238"/><stop stop-color="#73D0D2" offset=".242"/><stop stop-color="#74D1D3" offset=".246"/><stop stop-color="#74D1D3" offset=".25"/><stop stop-color="#74D1D4" offset=".258"/><stop stop-color="#75D1D5" offset=".262"/><stop stop-color="#75D1D6" offset=".266"/><stop stop-color="#76D1D6" offset=".27"/><stop stop-color="#76D1D7" offset=".273"/><stop stop-color="#77D0D7" offset=".277"/><stop stop-color="#77D0D8" offset=".281"/><stop stop-color="#78CFD8" offset=".285"/><stop stop-color="#79CFD9" offset=".289"/><stop stop-color="#79CED9" offset=".297"/><stop stop-color="#7ACDDA" offset=".305"/><stop stop-color="#7BCCDA" offset=".309"/><stop stop-color="#7CCCDA" offset=".313"/><stop stop-color="#7DCBDB" offset=".316"/><stop stop-color="#7DCBDB" offset=".32"/><stop stop-color="#7ECADB" offset=".324"/><stop stop-color="#7EC9DB" offset=".328"/><stop stop-color="#7FC8DC" offset=".332"/><stop stop-color="#80C8DC" offset=".336"/><stop stop-color="#81C7DD" offset=".34"/><stop stop-color="#81C7DD" offset=".344"/><stop stop-color="#82C6DE" offset=".348"/><stop stop-color="#82C6DE" offset=".352"/><stop stop-color="#83C5DE" offset=".355"/><stop stop-color="#84C4DE" offset=".359"/><stop stop-color="#85C4DE" offset=".363"/><stop stop-color="#85C3DE" offset=".367"/><stop stop-color="#86C3DF" offset=".371"/><stop stop-color="#87C2DF" offset=".375"/><stop stop-color="#88C1DF" offset=".379"/><stop stop-color="#89C1DF" offset=".383"/><stop stop-color="#89C0E0" offset=".387"/><stop stop-color="#8AC0E0" offset=".391"/><stop stop-color="#8BBFE0" offset=".395"/><stop stop-color="#8CBEE1" offset=".398"/><stop stop-color="#8DBDE1" offset=".402"/><stop stop-color="#8DBDE1" offset=".406"/><stop stop-color="#8EBCE2" offset=".41"/><stop stop-color="#8FBCE2" offset=".414"/><stop stop-color="#90BBE2" offset=".422"/><stop stop-color="#91BAE2" offset=".426"/><stop stop-color="#92B9E2" offset=".43"/><stop stop-color="#93B8E2" offset=".438"/><stop stop-color="#94B7E2" offset=".441"/><stop stop-color="#95B6E3" offset=".445"/><stop stop-color="#96B5E3" offset=".449"/><stop stop-color="#96B5E3" offset=".453"/><stop stop-color="#97B4E2" offset=".457"/><stop stop-color="#98B4E2" offset=".461"/><stop stop-color="#99B3E2" offset=".465"/><stop stop-color="#9AB2E2" offset=".469"/><stop stop-color="#9BB1E1" offset=".473"/><stop stop-color="#9BB1E1" offset=".477"/><stop stop-color="#9CB0E0" offset=".48"/><stop stop-color="#9DAFE0" offset=".484"/><stop stop-color="#9EAEE0" offset=".488"/><stop stop-color="#9FAEDF" offset=".492"/><stop stop-color="#A0ADDF" offset=".496"/><stop stop-color="#A0ADDE" offset=".5"/><stop stop-color="#A0ACDE" offset=".504"/><stop stop-color="#A1ABDE" offset=".508"/><stop stop-color="#A2ABDE" offset=".512"/><stop stop-color="#A3AADD" offset=".516"/><stop stop-color="#A4A9DD" offset=".52"/><stop stop-color="#A5A9DC" offset=".523"/><stop stop-color="#A6A8DC" offset=".527"/><stop stop-color="#A7A7DB" offset=".531"/><stop stop-color="#A8A6DB" offset=".535"/><stop stop-color="#A8A5DA" offset=".539"/><stop stop-color="#A9A4DA" offset=".543"/><stop stop-color="#AAA4D9" offset=".547"/><stop stop-color="#ABA3D9" offset=".551"/><stop stop-color="#ACA3D9" offset=".555"/><stop stop-color="#ACA2D8" offset=".559"/><stop stop-color="#ADA2D8" offset=".563"/><stop stop-color="#ADA1D8" offset=".566"/><stop stop-color="#AEA1D8" offset=".57"/><stop stop-color="#AFA0D7" offset=".574"/><stop stop-color="#AFA0D7" offset=".578"/><stop stop-color="#B09FD6" offset=".582"/><stop stop-color="#B09FD6" offset=".586"/><stop stop-color="#B19ED5" offset=".59"/><stop stop-color="#B29DD5" offset=".594"/><stop stop-color="#B29DD5" offset=".602"/><stop stop-color="#B49BD4" offset=".605"/><stop stop-color="#B59BD4" offset=".609"/><stop stop-color="#B69AD3" offset=".613"/><stop stop-color="#B699D3" offset=".617"/><stop stop-color="#B798D3" offset=".621"/><stop stop-color="#B798D3" offset=".625"/><stop stop-color="#B897D2" offset=".629"/><stop stop-color="#B896D2" offset=".633"/><stop stop-color="#B895D2" offset=".641"/><stop stop-color="#B895D1" offset=".648"/><stop stop-color="#B994D1" offset=".652"/><stop stop-color="#B994D0" offset=".656"/><stop stop-color="#BA93D0" offset=".66"/><stop stop-color="#BB92D0" offset=".664"/><stop stop-color="#BB92D0" offset=".668"/><stop stop-color="#BC91CF" offset=".672"/><stop stop-color="#BC90CF" offset=".676"/><stop stop-color="#BD8FCE" offset=".68"/><stop stop-color="#BD8FCE" offset=".688"/><stop stop-color="#BE8ECD" offset=".691"/><stop stop-color="#BE8DCD" offset=".695"/><stop stop-color="#BF8DCD" offset=".699"/><stop stop-color="#BF8CCC" offset=".703"/><stop stop-color="#C08BCC" offset=".707"/><stop stop-color="#C08BCC" offset=".711"/><stop stop-color="#C08ACB" offset=".719"/><stop stop-color="#C189CB" offset=".723"/><stop stop-color="#C189CB" offset=".727"/><stop stop-color="#C188CA" offset=".73"/><stop stop-color="#C188CA" offset=".734"/><stop stop-color="#C287CA" offset=".738"/><stop stop-color="#C287CA" offset=".742"/><stop stop-color="#C386C9" offset=".746"/><stop stop-color="#C386C9" offset=".75"/><stop stop-color="#C485C9" offset=".758"/><stop stop-color="#C485C8" offset=".766"/><stop stop-color="#C584C8" offset=".77"/><stop stop-color="#C583C8" offset=".773"/><stop stop-color="#C583C7" offset=".777"/><stop stop-color="#C582C7" offset=".781"/><stop stop-color="#C681C7" offset=".789"/><stop stop-color="#C681C6" offset=".793"/><stop stop-color="#C780C6" offset=".797"/><stop stop-color="#C77FC6" offset=".801"/><stop stop-color="#C87FC6" offset=".805"/><stop stop-color="#C87FC6" offset=".813"/><stop stop-color="#C87EC5" offset=".816"/><stop stop-color="#C97EC5" offset=".82"/><stop stop-color="#C97DC5" offset=".824"/><stop stop-color="#CA7CC5" offset=".828"/><stop stop-color="#CA7BC5" offset=".832"/><stop stop-color="#CB7BC4" offset=".836"/><stop stop-color="#CB7AC4" offset=".844"/><stop stop-color="#CC7AC4" offset=".852"/><stop stop-color="#CD79C3" offset=".855"/><stop stop-color="#CD79C3" offset=".859"/><stop stop-color="#CD79C3" offset=".867"/><stop stop-color="#CE78C3" offset=".875"/><stop stop-color="#CF77C2" offset=".879"/><stop stop-color="#CF76C2" offset=".883"/><stop stop-color="#D076C2" offset=".891"/><stop stop-color="#D076C1" offset=".906"/><stop stop-color="#D076C1" offset=".938"/><stop stop-color="#D076C1" offset="1"/></linearGradient></defs><g clip-path="url(#a)"><g clip-path="url(#b)"><g clip-path="url(#c)"><g clip-path="url(#d)"><path fill="url(#e)" d="M -18.511719 187.316406 L 187.300781 393.054688 L 393.113281 187.316406 L 187.300781 -18.425781 Z M -18.511719 187.316406"/></g></g></g></g></svg>