<svg xmlns="http://www.w3.org/2000/svg" width="375" viewBox="0 0 375 375" height="375" version="1.0"><defs><clipPath id="a"><path d="M 45 95.003906 L 329 95.003906 L 329 192 L 45 192 Z M 45 95.003906"/></clipPath><clipPath id="b"><path d="M 32 210 L 342 210 L 342 280.253906 L 32 280.253906 Z M 32 210"/></clipPath></defs><g clip-path="url(#a)"><path fill="#252F3E" d="M 119.511719 162.269531 C 119.511719 166.085938 119.925781 169.175781 120.644531 171.441406 C 121.46875 173.710938 122.496094 176.183594 123.933594 178.859375 C 124.449219 179.683594 124.652344 180.507812 124.652344 181.230469 C 124.652344 182.261719 124.039062 183.292969 122.699219 184.324219 L 116.222656 188.648438 C 115.296875 189.269531 114.375 189.578125 113.550781 189.578125 C 112.523438 189.578125 111.492188 189.0625 110.464844 188.132812 C 109.027344 186.589844 107.792969 184.941406 106.765625 183.292969 C 105.734375 181.539062 104.707031 179.582031 103.578125 177.210938 C 95.558594 186.691406 85.480469 191.433594 73.347656 191.433594 C 64.710938 191.433594 57.824219 188.957031 52.785156 184.015625 C 47.746094 179.066406 45.175781 172.472656 45.175781 164.230469 C 45.175781 155.472656 48.261719 148.363281 54.535156 143.003906 C 60.804688 137.644531 69.132812 134.964844 79.722656 134.964844 C 83.21875 134.964844 86.816406 135.273438 90.621094 135.789062 C 94.425781 136.304688 98.332031 137.128906 102.445312 138.058594 L 102.445312 130.535156 C 102.445312 122.703125 100.800781 117.242188 97.613281 114.050781 C 94.324219 110.855469 88.769531 109.308594 80.855469 109.308594 C 77.253906 109.308594 73.554688 109.722656 69.75 110.648438 C 65.945312 111.574219 62.242188 112.710938 58.644531 114.152344 C 57 114.875 55.765625 115.285156 55.046875 115.492188 C 54.328125 115.699219 53.8125 115.800781 53.402344 115.800781 C 51.960938 115.800781 51.242188 114.769531 51.242188 112.605469 L 51.242188 107.558594 C 51.242188 105.910156 51.449219 104.671875 51.960938 103.949219 C 52.476562 103.230469 53.402344 102.507812 54.839844 101.789062 C 58.441406 99.933594 62.757812 98.386719 67.796875 97.148438 C 72.835938 95.8125 78.179688 95.191406 83.835938 95.191406 C 96.070312 95.191406 105.015625 97.972656 110.773438 103.539062 C 116.429688 109.101562 119.308594 117.550781 119.308594 128.886719 L 119.308594 162.273438 L 119.511719 162.273438 Z M 77.769531 177.933594 C 81.164062 177.933594 84.660156 177.316406 88.359375 176.078125 C 92.0625 174.84375 95.351562 172.574219 98.128906 169.484375 C 99.773438 167.527344 101.007812 165.363281 101.621094 162.890625 C 102.242188 160.417969 102.652344 157.429688 102.652344 153.925781 L 102.652344 149.597656 C 99.671875 148.878906 96.484375 148.257812 93.191406 147.847656 C 89.902344 147.433594 86.714844 147.226562 83.527344 147.226562 C 76.640625 147.226562 71.601562 148.566406 68.207031 151.347656 C 64.8125 154.132812 63.167969 158.046875 63.167969 163.199219 C 63.167969 168.042969 64.402344 171.648438 66.972656 174.121094 C 69.441406 176.699219 73.039062 177.933594 77.769531 177.933594 Z M 160.339844 189.0625 C 158.484375 189.0625 157.246094 188.753906 156.421875 188.03125 C 155.609375 187.414062 154.878906 185.972656 154.261719 184.015625 L 130.105469 104.363281 C 129.488281 102.300781 129.179688 100.960938 129.179688 100.242188 C 129.179688 98.59375 130 97.664062 131.644531 97.664062 L 141.722656 97.664062 C 143.675781 97.664062 145.011719 97.972656 145.730469 98.695312 C 146.554688 99.3125 147.171875 100.757812 147.789062 102.714844 L 165.054688 170.925781 L 181.105469 102.714844 C 181.613281 100.652344 182.230469 99.316406 183.054688 98.695312 C 183.882812 98.078125 185.3125 97.664062 187.167969 97.664062 L 195.390625 97.664062 C 197.34375 97.664062 198.679688 97.976562 199.503906 98.695312 C 200.328125 99.316406 201.042969 100.757812 201.457031 102.714844 L 217.710938 171.753906 L 235.492188 102.714844 C 236.109375 100.65625 236.824219 99.316406 237.554688 98.695312 C 238.367188 98.078125 239.710938 97.667969 241.554688 97.667969 L 251.125 97.667969 C 252.761719 97.667969 253.683594 98.492188 253.683594 100.242188 C 253.683594 100.757812 253.589844 101.273438 253.492188 101.890625 C 253.382812 102.507812 253.175781 103.332031 252.761719 104.46875 L 227.984375 184.117188 C 227.363281 186.179688 226.648438 187.519531 225.824219 188.136719 C 225 188.753906 223.664062 189.167969 221.917969 189.167969 L 213.078125 189.167969 C 211.125 189.167969 209.789062 188.859375 208.964844 188.136719 C 208.140625 187.414062 207.425781 186.074219 207.011719 184.015625 L 191.074219 117.554688 L 175.246094 183.910156 C 174.722656 185.972656 174.105469 187.3125 173.292969 188.03125 C 172.46875 188.753906 171.023438 189.0625 169.179688 189.0625 Z M 292.449219 191.84375 C 287.101562 191.84375 281.765625 191.226562 276.621094 189.988281 C 271.480469 188.753906 267.464844 187.414062 264.796875 185.867188 C 263.144531 184.941406 262.019531 183.910156 261.605469 182.984375 C 261.191406 182.054688 260.988281 181.023438 260.988281 180.097656 L 260.988281 174.84375 C 260.988281 172.679688 261.8125 171.648438 263.351562 171.648438 C 263.972656 171.648438 264.589844 171.75 265.207031 171.957031 C 265.828125 172.164062 266.75 172.574219 267.78125 172.988281 C 271.273438 174.535156 275.082031 175.769531 279.082031 176.59375 C 283.195312 177.417969 287.210938 177.832031 291.320312 177.832031 C 297.800781 177.832031 302.832031 176.699219 306.339844 174.429688 C 309.832031 172.164062 311.675781 168.867188 311.675781 164.640625 C 311.675781 161.757812 310.753906 159.386719 308.910156 157.429688 C 307.054688 155.472656 303.5625 153.71875 298.515625 152.070312 L 283.609375 147.433594 C 276.101562 145.0625 270.558594 141.5625 267.160156 136.921875 C 263.765625 132.390625 262.019531 127.339844 262.019531 121.984375 C 262.019531 117.65625 262.941406 113.84375 264.796875 110.546875 C 266.652344 107.246094 269.113281 104.363281 272.195312 102.097656 C 275.289062 99.726562 278.78125 97.972656 282.890625 96.738281 C 287.003906 95.5 291.320312 94.988281 295.847656 94.988281 C 298.101562 94.988281 300.46875 95.089844 302.734375 95.398438 C 305.101562 95.707031 307.261719 96.121094 309.417969 96.53125 C 311.46875 97.046875 313.421875 97.5625 315.277344 98.179688 C 317.132812 98.800781 318.566406 99.417969 319.59375 100.035156 C 321.039062 100.859375 322.070312 101.683594 322.675781 102.613281 C 323.296875 103.4375 323.609375 104.570312 323.609375 106.011719 L 323.609375 110.855469 C 323.609375 113.019531 322.785156 114.152344 321.246094 114.152344 C 320.421875 114.152344 319.085938 113.742188 317.339844 112.914062 C 311.46875 110.234375 304.894531 108.894531 297.59375 108.894531 C 291.734375 108.894531 287.101562 109.824219 283.921875 111.78125 C 280.734375 113.742188 279.082031 116.726562 279.082031 120.953125 C 279.082031 123.835938 280.113281 126.308594 282.175781 128.269531 C 284.226562 130.226562 288.035156 132.183594 293.480469 133.933594 L 308.085938 138.574219 C 315.484375 140.941406 320.832031 144.238281 324.023438 148.464844 C 327.199219 152.6875 328.753906 157.53125 328.753906 162.890625 C 328.753906 167.320312 327.820312 171.339844 326.074219 174.84375 C 324.230469 178.34375 321.753906 181.4375 318.566406 183.910156 C 315.386719 186.484375 311.578125 188.339844 307.152344 189.679688 C 302.53125 191.125 297.703125 191.84375 292.449219 191.84375 Z M 292.449219 191.84375"/></g><g clip-path="url(#b)"><path fill="#F90" d="M 311.882812 241.917969 C 278.054688 266.957031 228.917969 280.253906 186.660156 280.253906 C 127.429688 280.253906 74.070312 258.300781 33.769531 221.824219 C 30.578125 218.941406 33.457031 215.027344 37.257812 217.289062 C 80.855469 242.644531 134.628906 258 190.246094 258 C 227.773438 258 269.011719 250.171875 306.941406 234.089844 C 312.605469 231.511719 317.433594 237.796875 311.878906 241.917969 Z M 325.976562 225.847656 C 321.65625 220.28125 297.386719 223.171875 286.386719 224.511719 C 283.097656 224.921875 282.578125 222.03125 285.5625 219.867188 C 304.894531 206.269531 336.660156 210.1875 340.359375 214.71875 C 344.074219 219.355469 339.34375 251.191406 321.246094 266.445312 C 318.46875 268.816406 315.785156 267.578125 317.023438 264.488281 C 321.136719 254.289062 330.292969 231.304688 325.976562 225.847656 Z M 325.976562 225.847656"/></g></svg>