<svg xmlns="http://www.w3.org/2000/svg" width="375" viewBox="0 0 375 375" height="375" version="1.0"><defs><clipPath id="a"><path d="M 32.957031 55.171875 L 259 55.171875 L 259 227 L 32.957031 227 Z M 32.957031 55.171875"/></clipPath><clipPath id="b"><path d="M 156 270 L 202 270 L 202 319.921875 L 156 319.921875 Z M 156 270"/></clipPath><clipPath id="c"><path d="M 300 270 L 341 270 L 341 319.921875 L 300 319.921875 Z M 300 270"/></clipPath><clipPath id="d"><path d="M 182 244 L 315 244 L 315 319.921875 L 182 319.921875 Z M 182 244"/></clipPath></defs><path fill="#F9AB0C" d="M 257.160156 62.984375 L 257.160156 215.542969 C 257.160156 220.898438 252.804688 225.242188 247.453125 225.242188 L 43.984375 225.242188 C 38.621094 225.242188 34.277344 220.898438 34.277344 215.542969 L 34.277344 85.5625 C 34.277344 80.203125 38.621094 75.855469 43.984375 75.855469 L 167.480469 75.855469 C 167.480469 75.855469 173.097656 66.21875 174.921875 62.984375 C 177.019531 59.347656 178.636719 56.460938 181.457031 56.460938 L 250.621094 56.460938 C 254.238281 56.460938 257.160156 59.390625 257.160156 62.984375"/><g clip-path="url(#a)"><path fill="#231F20" d="M 257.160156 62.984375 L 255.859375 62.984375 L 255.859375 215.542969 C 255.859375 217.863281 254.917969 219.953125 253.394531 221.476562 C 251.867188 222.996094 249.773438 223.9375 247.453125 223.9375 L 43.984375 223.9375 C 41.65625 223.9375 39.5625 222.996094 38.039062 221.476562 C 36.519531 219.957031 35.582031 217.863281 35.582031 215.542969 L 35.582031 85.5625 C 35.582031 83.238281 36.519531 81.144531 38.039062 79.621094 C 39.566406 78.097656 41.65625 77.160156 43.984375 77.160156 L 167.480469 77.160156 C 167.945312 77.160156 168.375 76.910156 168.609375 76.511719 C 168.609375 76.507812 174.21875 66.878906 176.058594 63.625 L 176.050781 63.632812 C 177.097656 61.8125 178.015625 60.234375 178.902344 59.210938 C 179.347656 58.699219 179.773438 58.335938 180.183594 58.105469 C 180.59375 57.878906 180.976562 57.769531 181.457031 57.765625 L 250.621094 57.765625 C 252.074219 57.765625 253.375 58.351562 254.328125 59.300781 C 255.277344 60.25 255.859375 61.546875 255.859375 62.984375 L 258.464844 62.984375 C 258.464844 58.667969 254.957031 55.160156 250.621094 55.160156 L 181.457031 55.160156 C 180.527344 55.15625 179.652344 55.40625 178.902344 55.835938 C 177.769531 56.476562 176.90625 57.449219 176.105469 58.5625 C 175.3125 59.683594 174.578125 60.972656 173.796875 62.332031 L 173.789062 62.34375 C 172.882812 63.945312 171.019531 67.167969 169.390625 69.980469 C 168.574219 71.382812 167.816406 72.6875 167.261719 73.640625 C 166.703125 74.597656 166.359375 75.199219 166.355469 75.199219 L 167.480469 75.855469 L 167.480469 74.550781 L 43.984375 74.550781 C 37.898438 74.550781 32.976562 79.480469 32.976562 85.5625 L 32.976562 215.542969 C 32.976562 221.617188 37.902344 226.546875 43.984375 226.546875 L 247.453125 226.546875 C 253.523438 226.542969 258.460938 221.621094 258.464844 215.542969 L 258.464844 62.984375 L 257.160156 62.984375"/></g><path fill="#16313B" d="M 165.410156 151.800781 L 165.410156 128.894531 C 165.410156 120.175781 158.328125 113.085938 149.613281 113.085938 C 140.910156 113.085938 133.828125 120.175781 133.828125 128.894531 L 133.828125 151.800781 L 122.226562 151.800781 L 122.226562 128.894531 C 122.226562 113.777344 134.519531 101.488281 149.613281 101.488281 C 164.722656 101.488281 177.003906 113.777344 177.003906 128.894531 L 177.003906 151.800781 L 165.410156 151.800781"/><path fill="#231F20" d="M 165.410156 151.800781 L 166.710938 151.800781 L 166.710938 128.894531 C 166.707031 119.457031 159.050781 111.785156 149.613281 111.78125 C 140.1875 111.785156 132.527344 119.457031 132.527344 128.894531 L 132.527344 150.496094 L 123.53125 150.496094 L 123.53125 128.894531 C 123.53125 121.691406 126.457031 115.171875 131.183594 110.441406 C 135.910156 105.714844 142.421875 102.789062 149.613281 102.789062 C 156.808594 102.789062 163.324219 105.714844 168.050781 110.441406 C 172.777344 115.171875 175.699219 121.691406 175.699219 128.894531 L 175.699219 150.496094 L 165.410156 150.496094 L 165.410156 151.800781 L 166.710938 151.800781 L 165.410156 151.800781 L 165.410156 153.105469 L 177.003906 153.105469 C 177.347656 153.105469 177.679688 152.96875 177.921875 152.722656 C 178.171875 152.476562 178.304688 152.148438 178.304688 151.800781 L 178.304688 128.894531 C 178.300781 113.054688 165.441406 100.183594 149.613281 100.183594 C 133.796875 100.183594 120.929688 113.054688 120.925781 128.894531 L 120.925781 151.800781 C 120.925781 152.144531 121.0625 152.480469 121.304688 152.722656 C 121.550781 152.964844 121.886719 153.105469 122.226562 153.105469 L 133.828125 153.105469 C 134.171875 153.105469 134.507812 152.964844 134.75 152.722656 C 134.992188 152.480469 135.132812 152.144531 135.132812 151.800781 L 135.132812 128.894531 C 135.132812 124.894531 136.753906 121.273438 139.375 118.640625 C 142.007812 116.011719 145.621094 114.386719 149.613281 114.386719 C 153.613281 114.386719 157.226562 116.011719 159.855469 118.640625 C 162.484375 121.273438 164.105469 124.894531 164.105469 128.894531 L 164.105469 151.800781 C 164.105469 152.148438 164.242188 152.476562 164.484375 152.722656 C 164.734375 152.96875 165.058594 153.105469 165.410156 153.105469 L 165.410156 151.800781"/><path fill="#33BDF2" d="M 115.066406 197.746094 C 115.066406 204.070312 120.183594 209.191406 126.503906 209.191406 L 172.730469 209.191406 C 179.058594 209.191406 184.167969 204.070312 184.167969 197.746094 L 184.167969 158.367188 C 184.167969 152.050781 179.058594 146.921875 172.730469 146.921875 L 126.503906 146.921875 C 120.183594 146.921875 115.066406 152.050781 115.066406 158.367188 L 115.066406 197.746094"/><path fill="#231F20" d="M 115.066406 197.746094 L 113.761719 197.746094 C 113.761719 204.789062 119.460938 210.496094 126.503906 210.496094 L 172.730469 210.496094 C 176.25 210.496094 179.441406 209.066406 181.742188 206.761719 C 184.046875 204.460938 185.472656 201.265625 185.472656 197.746094 L 185.472656 158.367188 C 185.472656 151.332031 179.777344 145.617188 172.730469 145.617188 L 126.503906 145.617188 C 119.460938 145.617188 113.761719 151.332031 113.761719 158.367188 L 113.761719 197.746094 L 116.367188 197.746094 L 116.367188 158.367188 C 116.367188 155.566406 117.496094 153.035156 119.332031 151.195312 C 121.171875 149.359375 123.695312 148.226562 126.503906 148.226562 L 172.730469 148.226562 C 175.539062 148.226562 178.066406 149.359375 179.902344 151.195312 C 181.734375 153.035156 182.863281 155.5625 182.867188 158.367188 L 182.867188 197.746094 C 182.863281 203.351562 178.339844 207.890625 172.730469 207.890625 L 126.503906 207.890625 C 123.695312 207.890625 121.171875 206.753906 119.332031 204.917969 C 117.496094 203.082031 116.367188 200.550781 116.367188 197.746094 L 115.066406 197.746094"/><path fill="#16313B" d="M 146.539062 181.054688 C 142.804688 179.769531 140.101562 176.230469 140.101562 172.050781 C 140.101562 166.808594 144.363281 162.546875 149.613281 162.546875 C 154.863281 162.546875 159.125 166.808594 159.125 172.050781 C 159.125 176.230469 156.4375 179.769531 152.695312 181.054688 L 153.835938 184.261719 L 158.054688 196.144531 L 141.175781 196.144531 L 145.398438 184.261719 L 146.539062 181.054688"/><path fill="#231F20" d="M 146.539062 181.054688 L 146.964844 179.824219 C 143.738281 178.710938 141.40625 175.660156 141.40625 172.050781 C 141.410156 169.785156 142.324219 167.742188 143.8125 166.253906 C 145.300781 164.765625 147.347656 163.851562 149.613281 163.851562 C 151.882812 163.851562 153.925781 164.765625 155.414062 166.253906 C 156.90625 167.742188 157.820312 169.785156 157.820312 172.050781 C 157.820312 175.660156 155.503906 178.710938 152.273438 179.824219 C 151.941406 179.9375 151.671875 180.175781 151.523438 180.488281 C 151.371094 180.804688 151.351562 181.164062 151.46875 181.496094 L 152.605469 184.699219 L 156.210938 194.839844 L 143.019531 194.839844 L 146.625 184.699219 L 147.769531 181.496094 C 147.886719 181.167969 147.867188 180.804688 147.71875 180.492188 C 147.5625 180.175781 147.292969 179.941406 146.964844 179.824219 L 146.539062 181.054688 L 145.316406 180.617188 L 144.171875 183.824219 L 139.945312 195.707031 C 139.804688 196.109375 139.863281 196.550781 140.109375 196.898438 C 140.355469 197.242188 140.75 197.449219 141.175781 197.449219 L 158.054688 197.449219 C 158.480469 197.449219 158.875 197.242188 159.121094 196.898438 C 159.367188 196.550781 159.425781 196.109375 159.285156 195.707031 L 155.058594 183.824219 L 153.921875 180.621094 L 152.695312 181.054688 L 153.117188 182.289062 C 157.371094 180.828125 160.425781 176.804688 160.425781 172.050781 C 160.425781 166.082031 155.582031 161.246094 149.613281 161.242188 C 143.644531 161.246094 138.804688 166.082031 138.800781 172.050781 C 138.804688 176.808594 141.871094 180.828125 146.117188 182.289062 L 146.539062 181.054688 L 145.316406 180.617188 L 146.539062 181.054688"/><path fill="#33BDF2" d="M 158.820312 295.808594 C 164.90625 277.566406 173.765625 251.4375 178.421875 239.855469 C 183.164062 228.042969 194.550781 215.5 202.34375 207.828125 C 215.523438 224.628906 238.992188 240.628906 248.421875 240.628906 C 258.816406 240.628906 281.777344 224.71875 294.65625 207.976562 C 302.433594 215.667969 313.722656 228.121094 318.425781 239.855469 C 323.082031 251.4375 331.941406 277.566406 338.03125 295.808594"/><path fill="#231F20" d="M 160.054688 296.21875 C 163.097656 287.101562 166.832031 276.015625 170.390625 265.761719 C 173.941406 255.511719 177.320312 246.089844 179.628906 240.339844 C 181.925781 234.621094 185.894531 228.609375 190.257812 223.097656 C 194.625 217.585938 199.386719 212.566406 203.257812 208.753906 L 202.34375 207.828125 L 201.320312 208.632812 C 208.019531 217.164062 217.25 225.425781 226.042969 231.59375 C 230.4375 234.675781 234.71875 237.238281 238.539062 239.042969 C 240.449219 239.945312 242.25 240.664062 243.902344 241.15625 C 245.554688 241.652344 247.058594 241.929688 248.421875 241.933594 C 251.34375 241.921875 254.847656 240.855469 258.761719 239.0625 C 264.625 236.371094 271.386719 231.984375 277.925781 226.679688 C 284.46875 221.375 290.777344 215.15625 295.6875 208.773438 L 294.65625 207.976562 L 293.738281 208.902344 C 297.601562 212.722656 302.332031 217.726562 306.671875 223.207031 C 311.007812 228.6875 314.941406 234.65625 317.21875 240.339844 C 319.53125 246.089844 322.90625 255.511719 326.457031 265.761719 C 330.015625 276.015625 333.753906 287.101562 336.796875 296.21875 C 337.023438 296.902344 337.765625 297.269531 338.445312 297.042969 C 339.128906 296.816406 339.5 296.074219 339.269531 295.394531 C 336.21875 286.269531 332.480469 275.175781 328.921875 264.90625 C 325.359375 254.636719 321.984375 245.207031 319.636719 239.371094 C 317.207031 233.320312 313.144531 227.195312 308.710938 221.59375 C 304.285156 215.988281 299.484375 210.921875 295.566406 207.050781 C 295.304688 206.789062 294.9375 206.652344 294.5625 206.675781 C 294.195312 206.703125 293.847656 206.886719 293.621094 207.183594 C 287.292969 215.417969 278.40625 223.515625 269.859375 229.511719 C 265.585938 232.515625 261.398438 234.984375 257.675781 236.695312 C 253.960938 238.410156 250.695312 239.335938 248.421875 239.324219 C 247.425781 239.324219 246.132812 239.105469 244.648438 238.660156 C 242.042969 237.878906 238.835938 236.417969 235.351562 234.4375 C 224.882812 228.5 211.875 217.871094 203.367188 207.023438 C 203.140625 206.726562 202.800781 206.550781 202.425781 206.527344 C 202.054688 206.5 201.695312 206.636719 201.429688 206.898438 C 197.507812 210.761719 192.679688 215.847656 188.21875 221.480469 C 183.757812 227.113281 179.660156 233.277344 177.214844 239.371094 C 174.867188 245.207031 171.484375 254.636719 167.925781 264.90625 C 164.367188 275.175781 160.628906 286.269531 157.585938 295.394531 C 157.355469 296.074219 157.722656 296.816406 158.40625 297.042969 C 159.089844 297.269531 159.828125 296.902344 160.054688 296.21875"/><path fill="#33BDF2" d="M 248.421875 110.488281 C 273.644531 110.488281 303.867188 154.863281 303.867188 187.113281 C 303.867188 208.089844 263.292969 240.628906 248.421875 240.628906 C 234.984375 240.628906 192.980469 208.089844 192.980469 187.113281 C 192.980469 159.128906 223.203125 110.488281 248.421875 110.488281"/><path fill="#231F20" d="M 248.421875 110.488281 L 248.421875 111.789062 C 254.339844 111.785156 260.722656 114.414062 266.957031 118.976562 C 276.3125 125.804688 285.261719 136.925781 291.824219 149.308594 C 298.394531 161.683594 302.570312 175.320312 302.566406 187.113281 C 302.582031 191.929688 300.179688 197.71875 296.214844 203.597656 C 290.285156 212.417969 280.9375 221.429688 271.730469 228.175781 C 267.128906 231.550781 262.558594 234.359375 258.5 236.308594 C 256.464844 237.289062 254.5625 238.046875 252.851562 238.558594 C 251.144531 239.066406 249.636719 239.324219 248.421875 239.324219 C 247 239.328125 244.988281 238.871094 242.644531 237.96875 C 238.535156 236.402344 233.394531 233.523438 228.046875 229.8125 C 220.019531 224.246094 211.507812 216.800781 205.054688 209.101562 C 201.828125 205.25 199.113281 201.335938 197.226562 197.585938 C 195.335938 193.84375 194.28125 190.269531 194.285156 187.113281 C 194.28125 180.351562 196.125 172.1875 199.316406 163.796875 C 204.09375 151.210938 211.886719 138.105469 220.765625 128.222656 C 225.207031 123.285156 229.914062 119.148438 234.621094 116.273438 C 239.328125 113.394531 244.007812 111.789062 248.421875 111.789062 L 248.421875 109.183594 C 245.058594 109.183594 241.65625 109.992188 238.285156 111.429688 C 232.390625 113.953125 226.582031 118.398438 221.136719 124.007812 C 212.976562 132.421875 205.644531 143.480469 200.320312 154.789062 C 195.003906 166.097656 191.6875 177.628906 191.679688 187.113281 C 191.695312 192.796875 194.464844 198.941406 198.683594 205.066406 C 205.03125 214.242188 214.757812 223.378906 224.207031 230.28125 C 228.933594 233.730469 233.585938 236.617188 237.738281 238.65625 C 239.816406 239.679688 241.765625 240.488281 243.554688 241.050781 C 245.34375 241.609375 246.964844 241.929688 248.421875 241.933594 C 250.515625 241.929688 252.894531 241.375 255.523438 240.410156 C 260.109375 238.722656 265.449219 235.753906 270.921875 231.953125 C 279.125 226.257812 287.621094 218.695312 294.113281 210.765625 C 297.359375 206.796875 300.105469 202.738281 302.054688 198.75 C 304.003906 194.757812 305.171875 190.835938 305.171875 187.113281 C 305.171875 178.847656 303.242188 169.890625 299.976562 161.078125 C 295.066406 147.867188 287.140625 134.980469 277.996094 125.332031 C 273.421875 120.507812 268.539062 116.488281 263.546875 113.660156 C 258.554688 110.832031 253.4375 109.183594 248.421875 109.183594 L 248.421875 110.488281"/><path fill="#16313B" d="M 248.421875 171.546875 C 270.753906 171.546875 297.503906 177.140625 297.503906 189.566406 C 297.503906 209.578125 261.585938 240.628906 248.421875 240.628906 C 236.519531 240.628906 199.347656 209.578125 199.347656 189.566406 C 199.347656 177.140625 226.097656 171.546875 248.421875 171.546875"/><path fill="#231F20" d="M 248.421875 171.546875 L 248.421875 172.851562 C 259.480469 172.847656 271.660156 174.246094 280.949219 177.140625 C 285.59375 178.585938 289.507812 180.40625 292.167969 182.527344 C 293.5 183.585938 294.511719 184.710938 295.183594 185.875 C 295.855469 187.042969 296.199219 188.246094 296.203125 189.566406 C 296.210938 194.175781 294.089844 199.691406 290.582031 205.296875 C 285.335938 213.703125 277.070312 222.296875 268.929688 228.726562 C 264.859375 231.941406 260.824219 234.621094 257.238281 236.472656 C 255.449219 237.398438 253.773438 238.121094 252.273438 238.601562 C 250.777344 239.085938 249.460938 239.324219 248.421875 239.324219 C 247.210938 239.332031 245.449219 238.902344 243.390625 238.046875 C 239.773438 236.5625 235.230469 233.820312 230.503906 230.285156 C 223.410156 224.984375 215.882812 217.882812 210.171875 210.539062 C 207.324219 206.875 204.921875 203.140625 203.25 199.566406 C 201.578125 195.992188 200.644531 192.578125 200.648438 189.566406 C 200.652344 188.246094 200.996094 187.042969 201.667969 185.875 C 202.835938 183.835938 205.085938 181.921875 208.179688 180.273438 C 212.808594 177.789062 219.253906 175.914062 226.34375 174.683594 C 233.429688 173.449219 241.167969 172.851562 248.421875 172.851562 L 248.421875 170.242188 C 237.148438 170.246094 224.792969 171.644531 215.125 174.652344 C 210.289062 176.160156 206.117188 178.0625 203.066406 180.484375 C 201.539062 181.703125 200.289062 183.054688 199.410156 184.570312 C 198.535156 186.085938 198.042969 187.777344 198.042969 189.566406 C 198.058594 194.972656 200.507812 200.84375 204.246094 206.691406 C 209.867188 215.453125 218.484375 224.179688 226.859375 230.773438 C 231.042969 234.070312 235.175781 236.828125 238.863281 238.78125 C 240.707031 239.757812 242.441406 240.539062 244.039062 241.078125 C 245.636719 241.617188 247.089844 241.929688 248.421875 241.933594 C 250.320312 241.925781 252.449219 241.390625 254.789062 240.464844 C 258.875 238.847656 263.609375 236.003906 268.460938 232.375 C 275.734375 226.925781 283.261719 219.703125 289.011719 212.132812 C 291.890625 208.34375 294.324219 204.464844 296.050781 200.65625 C 297.777344 196.851562 298.804688 193.105469 298.808594 189.566406 C 298.8125 187.777344 298.320312 186.085938 297.441406 184.570312 C 295.898438 181.914062 293.246094 179.769531 289.902344 177.972656 C 284.878906 175.289062 278.222656 173.378906 270.953125 172.113281 C 263.691406 170.851562 255.820312 170.242188 248.421875 170.242188 L 248.421875 171.546875"/><path fill="#33BDF2" d="M 167.007812 271.964844 C 167.007812 271.964844 161.476562 288.070312 158.875 295.554688 C 156.035156 303.753906 154.949219 318.628906 178.765625 318.628906 C 200.15625 318.628906 200.617188 318.628906 200.617188 318.628906 L 192.589844 282.996094 C 188.277344 282.121094 181.191406 282.597656 181.191406 282.597656"/><g clip-path="url(#b)"><path fill="#231F20" d="M 165.773438 271.542969 C 165.773438 271.542969 165.425781 272.546875 164.867188 274.171875 C 163.191406 279.054688 159.59375 289.515625 157.644531 295.128906 C 156.808594 297.550781 156.113281 300.523438 156.109375 303.617188 C 156.109375 305.582031 156.394531 307.597656 157.125 309.53125 C 158.222656 312.429688 160.375 315.109375 163.886719 316.96875 C 167.398438 318.835938 172.21875 319.929688 178.765625 319.933594 C 200.15625 319.933594 200.617188 319.933594 200.617188 319.933594 C 201.015625 319.933594 201.390625 319.753906 201.640625 319.445312 C 201.882812 319.136719 201.980469 318.730469 201.890625 318.34375 L 193.859375 282.710938 C 193.746094 282.214844 193.351562 281.824219 192.847656 281.722656 C 190.613281 281.269531 187.855469 281.164062 185.550781 281.164062 C 183.058594 281.164062 181.117188 281.292969 181.101562 281.296875 C 180.382812 281.34375 179.839844 281.964844 179.886719 282.683594 C 179.9375 283.402344 180.558594 283.945312 181.273438 283.898438 C 181.273438 283.898438 181.386719 283.890625 181.597656 283.878906 C 182.234375 283.84375 183.75 283.773438 185.550781 283.773438 C 187.761719 283.769531 190.425781 283.882812 192.328125 284.277344 L 192.589844 282.996094 L 191.316406 283.285156 L 199.351562 318.914062 L 200.617188 318.628906 L 200.617188 317.328125 C 200.617188 317.328125 200.15625 317.328125 178.765625 317.328125 C 174.589844 317.328125 171.246094 316.859375 168.589844 316.070312 C 164.609375 314.878906 162.207031 313.015625 160.738281 310.867188 C 159.269531 308.714844 158.714844 306.195312 158.714844 303.617188 C 158.714844 300.921875 159.339844 298.195312 160.105469 295.984375 C 162.707031 288.496094 168.238281 272.390625 168.238281 272.386719 C 168.472656 271.707031 168.109375 270.964844 167.425781 270.730469 C 166.75 270.496094 166.003906 270.859375 165.773438 271.542969"/></g><path fill="#33BDF2" d="M 329.980469 271.941406 C 329.980469 271.941406 335.359375 288.070312 337.949219 295.554688 C 340.792969 303.753906 341.890625 318.628906 318.066406 318.628906 C 296.675781 318.628906 301.878906 318.628906 301.878906 318.628906 L 307.214844 282.539062 C 311.523438 281.660156 315.738281 282.414062 315.738281 282.414062"/><g clip-path="url(#c)"><path fill="#231F20" d="M 328.742188 272.355469 C 328.742188 272.359375 334.121094 288.480469 336.714844 295.984375 C 337.488281 298.203125 338.117188 300.925781 338.117188 303.628906 C 338.117188 305.34375 337.867188 307.039062 337.269531 308.609375 C 336.359375 310.964844 334.714844 313.066406 331.71875 314.671875 C 328.722656 316.269531 324.332031 317.328125 318.066406 317.328125 C 310.875 317.328125 306.6875 317.328125 304.296875 317.328125 C 301.910156 317.328125 301.324219 317.328125 301.324219 317.328125 C 300.976562 317.328125 300.644531 317.464844 300.398438 317.710938 C 300.160156 317.953125 300.019531 318.289062 300.019531 318.628906 C 300.019531 318.972656 300.160156 319.308594 300.398438 319.554688 C 300.644531 319.792969 300.976562 319.933594 301.324219 319.933594 L 301.878906 319.933594 C 302.523438 319.933594 303.074219 319.457031 303.167969 318.820312 L 308.503906 282.730469 L 307.214844 282.539062 L 307.476562 283.816406 C 308.949219 283.515625 310.441406 283.414062 311.734375 283.414062 C 312.839844 283.414062 313.800781 283.488281 314.472656 283.558594 C 314.808594 283.59375 315.078125 283.628906 315.253906 283.65625 C 315.34375 283.667969 315.410156 283.679688 315.453125 283.6875 L 315.503906 283.695312 L 315.511719 283.695312 C 316.222656 283.824219 316.898438 283.351562 317.027344 282.640625 C 317.152344 281.929688 316.679688 281.257812 315.96875 281.128906 C 315.917969 281.121094 314.167969 280.808594 311.734375 280.808594 C 310.3125 280.808594 308.65625 280.914062 306.957031 281.257812 C 306.417969 281.371094 306.003906 281.804688 305.925781 282.347656 L 300.589844 318.441406 L 301.878906 318.628906 L 301.878906 317.328125 L 301.324219 317.328125 C 300.976562 317.328125 300.644531 317.464844 300.398438 317.710938 C 300.160156 317.953125 300.019531 318.289062 300.019531 318.628906 C 300.019531 318.972656 300.160156 319.308594 300.398438 319.554688 C 300.644531 319.792969 300.976562 319.933594 301.324219 319.933594 C 301.324219 319.933594 301.910156 319.933594 304.296875 319.933594 C 306.6875 319.933594 310.875 319.933594 318.066406 319.933594 C 322.433594 319.933594 326.027344 319.445312 328.980469 318.570312 C 333.40625 317.261719 336.410156 315.035156 338.242188 312.34375 C 340.078125 309.648438 340.722656 306.570312 340.722656 303.628906 C 340.71875 300.53125 340.015625 297.550781 339.179688 295.128906 C 337.886719 291.398438 335.894531 285.492188 334.230469 280.527344 C 333.394531 278.042969 332.640625 275.796875 332.09375 274.167969 C 331.550781 272.539062 331.214844 271.535156 331.214844 271.53125 C 330.984375 270.847656 330.25 270.480469 329.566406 270.707031 C 328.886719 270.933594 328.515625 271.675781 328.742188 272.355469"/></g><path fill="#16313B" d="M 200.539062 318.628906 L 301.808594 318.628906 L 312.816406 245.390625 L 184.035156 245.390625 L 200.539062 318.628906"/><g clip-path="url(#d)"><path fill="#231F20" d="M 200.539062 318.628906 L 200.539062 319.933594 L 301.808594 319.933594 C 302.453125 319.933594 303 319.460938 303.097656 318.824219 L 314.105469 245.585938 C 314.160156 245.210938 314.046875 244.824219 313.800781 244.539062 C 313.558594 244.253906 313.191406 244.089844 312.816406 244.089844 L 184.035156 244.089844 C 183.636719 244.089844 183.261719 244.269531 183.015625 244.578125 C 182.769531 244.886719 182.675781 245.289062 182.761719 245.675781 L 199.273438 318.914062 C 199.402344 319.511719 199.933594 319.933594 200.539062 319.933594 L 200.539062 318.628906 L 201.8125 318.34375 L 185.660156 246.695312 L 311.300781 246.695312 L 300.683594 317.328125 L 200.539062 317.328125 L 200.539062 318.628906 L 201.8125 318.34375 L 200.539062 318.628906"/></g><path fill="#FFF" d="M 248.421875 225.78125 L 248.488281 225.765625 L 248.550781 225.78125 L 248.550781 225.75 C 254.90625 224.742188 259.976562 222.417969 265.132812 218.132812 L 265.132812 233.015625 C 258.566406 239.007812 252.429688 240.628906 248.421875 240.628906 C 244.699219 240.628906 238.480469 238.785156 231.714844 232.496094 L 231.714844 218.082031 C 237.726562 222.511719 242.023438 224.726562 248.421875 225.75 L 248.421875 225.78125"/><path fill="#231F20" d="M 248.421875 225.78125 L 248.703125 227.054688 L 248.769531 227.039062 L 248.488281 225.765625 L 248.171875 227.03125 L 248.234375 227.042969 C 248.621094 227.144531 249.035156 227.054688 249.351562 226.808594 C 249.664062 226.5625 249.851562 226.183594 249.851562 225.78125 L 249.851562 225.75 L 248.550781 225.75 L 248.753906 227.039062 C 255.308594 226.003906 260.675781 223.542969 265.964844 219.132812 L 265.132812 218.132812 L 263.828125 218.132812 L 263.828125 233.015625 L 265.132812 233.015625 L 264.253906 232.050781 C 257.902344 237.847656 252.085938 239.320312 248.421875 239.324219 C 246.773438 239.324219 244.449219 238.90625 241.726562 237.722656 C 239.007812 236.542969 235.882812 234.59375 232.597656 231.542969 L 231.714844 232.496094 L 233.015625 232.496094 L 233.015625 218.082031 L 231.714844 218.082031 L 230.941406 219.128906 C 233.980469 221.371094 236.628906 223.085938 239.367188 224.371094 C 242.101562 225.664062 244.917969 226.511719 248.214844 227.039062 L 248.421875 225.75 L 247.117188 225.75 L 247.117188 225.78125 C 247.117188 226.175781 247.296875 226.550781 247.605469 226.796875 C 247.910156 227.042969 248.316406 227.140625 248.703125 227.054688 L 248.421875 225.78125 L 249.722656 225.78125 L 249.722656 225.75 C 249.722656 225.109375 249.257812 224.5625 248.625 224.460938 C 245.527344 223.964844 242.992188 223.195312 240.476562 222.011719 C 237.964844 220.832031 235.457031 219.222656 232.488281 217.03125 C 232.089844 216.738281 231.5625 216.695312 231.125 216.917969 C 230.6875 217.136719 230.410156 217.589844 230.410156 218.082031 L 230.410156 232.496094 C 230.410156 232.859375 230.5625 233.207031 230.828125 233.453125 C 234.308594 236.691406 237.679688 238.804688 240.6875 240.117188 C 243.699219 241.421875 246.347656 241.929688 248.421875 241.933594 C 252.773438 241.933594 259.230469 240.167969 266.007812 233.976562 C 266.277344 233.730469 266.433594 233.382812 266.433594 233.015625 L 266.433594 218.132812 C 266.433594 217.625 266.144531 217.167969 265.683594 216.953125 C 265.222656 216.738281 264.6875 216.804688 264.296875 217.128906 C 259.28125 221.289062 254.496094 223.476562 248.347656 224.460938 C 247.710938 224.5625 247.246094 225.109375 247.246094 225.75 L 247.246094 225.78125 L 248.550781 225.78125 L 248.863281 224.515625 L 248.804688 224.5 C 248.609375 224.449219 248.398438 224.449219 248.207031 224.492188 L 248.136719 224.507812 L 248.421875 225.78125 L 249.722656 225.78125 L 248.421875 225.78125"/><path fill="#FFF" d="M 208.570312 178.175781 C 208.570312 178.175781 220.410156 171.65625 248.421875 171.558594 C 253.972656 171.542969 275.054688 172.03125 288.28125 177.761719 C 288.28125 177.761719 276.695312 222.5 248.550781 225.582031 L 248.550781 225.597656 L 248.488281 225.59375 L 248.421875 225.597656 L 248.421875 225.582031 C 220.289062 222.5 208.570312 178.175781 208.570312 178.175781"/><path fill="#231F20" d="M 208.570312 178.175781 L 209.195312 179.316406 L 209.1875 179.300781 L 209.191406 179.316406 L 209.195312 179.316406 L 209.1875 179.300781 L 209.191406 179.316406 C 209.371094 179.222656 221.046875 172.960938 248.425781 172.859375 C 248.503906 172.859375 248.582031 172.859375 248.664062 172.859375 C 251.578125 172.859375 258.183594 173 265.652344 173.835938 C 273.117188 174.671875 281.457031 176.222656 287.761719 178.957031 L 288.28125 177.761719 L 287.015625 177.4375 C 287.015625 177.4375 287.007812 177.472656 286.988281 177.550781 C 286.652344 178.800781 283.5625 189.898438 277.226562 200.953125 C 274.0625 206.484375 270.085938 211.992188 265.289062 216.269531 C 260.488281 220.542969 254.898438 223.574219 248.40625 224.285156 C 247.75 224.359375 247.246094 224.914062 247.246094 225.582031 L 247.246094 225.597656 L 248.550781 225.597656 L 248.640625 224.296875 L 248.578125 224.292969 L 248.40625 224.292969 L 248.339844 224.296875 L 248.421875 225.597656 L 249.722656 225.597656 L 249.722656 225.582031 C 249.722656 224.914062 249.222656 224.359375 248.5625 224.285156 C 241.863281 223.550781 236.113281 220.367188 231.199219 215.910156 C 223.835938 209.230469 218.445312 199.691406 214.949219 191.832031 C 213.195312 187.902344 211.914062 184.394531 211.070312 181.871094 C 210.644531 180.613281 210.335938 179.601562 210.128906 178.902344 C 210.023438 178.558594 209.949219 178.289062 209.898438 178.109375 C 209.875 178.019531 209.855469 177.949219 209.84375 177.90625 L 209.828125 177.84375 L 208.570312 178.175781 L 209.195312 179.316406 L 208.570312 178.175781 L 207.304688 178.511719 C 207.328125 178.570312 210.273438 189.730469 216.808594 201.363281 C 220.078125 207.179688 224.25 213.117188 229.449219 217.839844 C 234.644531 222.558594 240.910156 226.074219 248.277344 226.878906 L 248.421875 225.582031 L 247.117188 225.582031 L 247.117188 225.597656 C 247.117188 225.957031 247.265625 226.304688 247.527344 226.550781 C 247.789062 226.792969 248.140625 226.921875 248.5 226.902344 L 248.570312 226.894531 L 248.488281 225.59375 L 248.398438 226.894531 L 248.457031 226.898438 C 248.820312 226.925781 249.175781 226.800781 249.4375 226.550781 C 249.703125 226.304688 249.851562 225.960938 249.851562 225.597656 L 249.851562 225.582031 L 248.550781 225.582031 L 248.691406 226.878906 C 256.066406 226.070312 262.328125 222.53125 267.515625 217.773438 C 275.292969 210.621094 280.757812 200.726562 284.324219 192.605469 C 287.882812 184.484375 289.527344 178.136719 289.542969 178.089844 C 289.703125 177.46875 289.386719 176.824219 288.796875 176.566406 C 282.066406 173.65625 273.550781 172.101562 265.941406 171.246094 C 258.339844 170.390625 251.65625 170.253906 248.664062 170.253906 C 248.578125 170.253906 248.492188 170.253906 248.414062 170.253906 C 220.207031 170.351562 208.128906 176.929688 207.9375 177.035156 C 207.414062 177.320312 207.152344 177.929688 207.304688 178.511719 L 208.570312 178.175781"/><path fill="#16313B" d="M 283.207031 176.277344 L 283.207031 184.195312 C 283.207031 192.816406 276.234375 199.796875 267.617188 199.796875 C 259.007812 199.796875 252.011719 192.816406 252.011719 184.195312 L 252.011719 179.550781 L 244.734375 179.550781 L 244.734375 184.195312 C 244.734375 192.816406 237.75 199.796875 229.132812 199.796875 C 220.519531 199.796875 213.53125 192.816406 213.53125 184.195312 L 213.53125 176.277344 L 283.207031 176.277344"/><path fill="#231F20" d="M 283.207031 176.277344 L 281.902344 176.277344 L 281.902344 184.195312 C 281.902344 188.152344 280.308594 191.71875 277.722656 194.308594 C 275.132812 196.894531 271.570312 198.496094 267.617188 198.496094 C 263.664062 198.496094 260.101562 196.894531 257.503906 194.308594 C 254.914062 191.71875 253.3125 188.148438 253.3125 184.195312 L 253.3125 179.550781 C 253.3125 179.207031 253.175781 178.871094 252.933594 178.628906 C 252.6875 178.382812 252.351562 178.246094 252.011719 178.246094 L 244.734375 178.246094 C 244.390625 178.246094 244.054688 178.382812 243.8125 178.628906 C 243.570312 178.871094 243.429688 179.207031 243.429688 179.550781 L 243.429688 184.195312 C 243.429688 188.148438 241.832031 191.71875 239.242188 194.308594 C 236.648438 196.894531 233.082031 198.496094 229.132812 198.496094 C 225.179688 198.496094 221.613281 196.894531 219.027344 194.308594 C 216.4375 191.71875 214.839844 188.148438 214.835938 184.195312 L 214.835938 177.578125 L 283.207031 177.578125 L 283.207031 176.277344 L 281.902344 176.277344 L 283.207031 176.277344 L 283.207031 174.972656 L 213.53125 174.972656 C 213.191406 174.972656 212.855469 175.113281 212.613281 175.351562 C 212.367188 175.597656 212.230469 175.933594 212.230469 176.277344 L 212.230469 184.195312 C 212.234375 193.539062 219.800781 201.101562 229.132812 201.101562 C 238.46875 201.101562 246.035156 193.539062 246.035156 184.195312 L 246.035156 180.851562 L 250.707031 180.851562 L 250.707031 184.195312 C 250.707031 193.539062 258.289062 201.101562 267.617188 201.101562 C 276.949219 201.101562 284.511719 193.539062 284.511719 184.195312 L 284.511719 176.277344 C 284.511719 175.933594 284.371094 175.597656 284.128906 175.351562 C 283.890625 175.113281 283.554688 174.972656 283.207031 174.972656 L 283.207031 176.277344"/></svg>