<svg xmlns="http://www.w3.org/2000/svg" width="375" viewBox="0 0 375 375" height="375" version="1.0"><defs><clipPath id="a"><path d="M 71 63.105469 L 268 63.105469 L 268 153 L 71 153 Z M 71 63.105469"/></clipPath><clipPath id="b"><path d="M 180 94 L 340.851562 94 L 340.851562 311 L 180 311 Z M 180 94"/></clipPath><clipPath id="c"><path d="M 34.101562 137 L 190 137 L 190 294 L 34.101562 294 Z M 34.101562 137"/></clipPath></defs><g clip-path="url(#a)"><path fill="#EA4335" d="M 229.308594 132.132812 L 239.132812 132.300781 L 265.832031 105.574219 L 267.125 94.25 C 245.949219 75.367188 217.992188 63.867188 187.441406 63.867188 C 132.128906 63.867188 85.445312 101.539062 71.628906 152.570312 C 74.542969 150.539062 80.773438 152.0625 80.773438 152.0625 L 134.121094 143.28125 C 134.121094 143.28125 136.859375 138.738281 138.25 138.964844 C 139.804688 137.253906 141.445312 135.628906 143.171875 134.089844 C 144.894531 132.550781 146.695312 131.105469 148.570312 129.753906 C 150.445312 128.402344 152.382812 127.152344 154.386719 126 C 156.394531 124.851562 158.453125 123.808594 160.566406 122.875 C 162.679688 121.941406 164.835938 121.117188 167.035156 120.410156 C 169.234375 119.699219 171.464844 119.105469 173.722656 118.628906 C 175.984375 118.152344 178.265625 117.792969 180.5625 117.554688 C 182.859375 117.3125 185.164062 117.195312 187.476562 117.195312 C 203.292969 117.230469 217.863281 122.824219 229.308594 132.078125 Z M 229.308594 132.132812"/></g><g clip-path="url(#b)"><path fill="#4285F4" d="M 303.320312 152.675781 C 297.125 129.789062 284.351562 109.582031 267.109375 94.25 L 229.308594 132.09375 C 244.453125 144.328125 254.167969 163.050781 254.167969 184.007812 L 254.167969 190.6875 C 272.558594 190.6875 287.5 205.675781 287.5 224.050781 C 287.5 242.460938 272.527344 257.417969 254.167969 257.417969 L 187.507812 257.417969 L 180.835938 264.132812 L 180.835938 304.179688 L 187.507812 310.824219 L 254.167969 310.824219 C 255.585938 310.820312 257.003906 310.785156 258.421875 310.714844 C 259.835938 310.640625 261.25 310.535156 262.660156 310.394531 C 264.070312 310.253906 265.480469 310.078125 266.882812 309.867188 C 268.285156 309.660156 269.679688 309.414062 271.070312 309.136719 C 272.460938 308.859375 273.84375 308.546875 275.21875 308.199219 C 276.59375 307.855469 277.960938 307.472656 279.316406 307.0625 C 280.671875 306.648438 282.019531 306.203125 283.355469 305.722656 C 284.6875 305.242188 286.011719 304.730469 287.320312 304.1875 C 288.628906 303.644531 289.925781 303.066406 291.207031 302.460938 C 292.488281 301.851562 293.753906 301.214844 295.003906 300.542969 C 296.253906 299.875 297.488281 299.171875 298.703125 298.441406 C 299.921875 297.710938 301.117188 296.953125 302.296875 296.164062 C 303.476562 295.375 304.632812 294.558594 305.773438 293.710938 C 306.910156 292.867188 308.027344 291.992188 309.125 291.09375 C 310.222656 290.191406 311.292969 289.265625 312.34375 288.3125 C 313.394531 287.359375 314.421875 286.378906 315.425781 285.375 C 316.425781 284.371094 317.40625 283.34375 318.359375 282.292969 C 319.308594 281.242188 320.234375 280.167969 321.136719 279.070312 C 322.035156 277.972656 322.90625 276.855469 323.753906 275.714844 C 324.597656 274.574219 325.414062 273.414062 326.203125 272.234375 C 326.992188 271.054688 327.75 269.855469 328.480469 268.636719 C 329.210938 267.421875 329.910156 266.1875 330.578125 264.933594 C 331.246094 263.683594 331.886719 262.417969 332.492188 261.132812 C 333.097656 259.851562 333.675781 258.554688 334.21875 257.242188 C 334.761719 255.933594 335.273438 254.609375 335.75 253.273438 C 336.230469 251.9375 336.675781 250.589844 337.089844 249.230469 C 337.503906 247.871094 337.882812 246.503906 338.226562 245.128906 C 338.574219 243.753906 338.886719 242.367188 339.164062 240.976562 C 339.441406 239.585938 339.6875 238.1875 339.894531 236.78125 C 340.105469 235.378906 340.28125 233.96875 340.421875 232.558594 C 340.5625 231.144531 340.667969 229.730469 340.738281 228.3125 C 340.8125 226.894531 340.847656 225.476562 340.851562 224.058594 C 340.816406 194.523438 325.992188 168.398438 303.320312 152.683594 Z M 303.320312 152.675781"/></g><path fill="#34A853" d="M 120.78125 310.867188 L 187.402344 310.867188 L 187.402344 257.417969 L 120.78125 257.417969 C 115.992188 257.417969 111.417969 256.421875 107.0625 254.433594 L 97.445312 257.382812 L 70.746094 284.109375 L 68.40625 293.128906 C 72.144531 295.980469 76.085938 298.511719 80.234375 300.722656 C 84.386719 302.929688 88.683594 304.785156 93.136719 306.289062 C 97.589844 307.796875 102.132812 308.929688 106.773438 309.691406 C 111.410156 310.449219 116.078125 310.832031 120.777344 310.828125 Z M 120.78125 310.867188"/><g clip-path="url(#c)"><path fill="#FBBC05" d="M 120.78125 137.324219 C 119.363281 137.324219 117.945312 137.363281 116.53125 137.433594 C 115.113281 137.503906 113.699219 137.609375 112.289062 137.753906 C 110.878906 137.894531 109.472656 138.066406 108.070312 138.277344 C 106.664062 138.488281 105.269531 138.730469 103.878906 139.011719 C 102.488281 139.289062 101.105469 139.601562 99.730469 139.949219 C 98.355469 140.292969 96.988281 140.671875 95.632812 141.085938 C 94.277344 141.5 92.929688 141.945312 91.597656 142.425781 C 90.261719 142.90625 88.9375 143.417969 87.628906 143.960938 C 86.320312 144.503906 85.023438 145.082031 83.742188 145.6875 C 82.460938 146.296875 81.195312 146.933594 79.945312 147.605469 C 78.695312 148.273438 77.460938 148.972656 76.246094 149.703125 C 75.03125 150.433594 73.832031 151.195312 72.652344 151.984375 C 71.472656 152.773438 70.316406 153.589844 69.175781 154.433594 C 68.039062 155.28125 66.921875 156.15625 65.824219 157.054688 C 64.730469 157.957031 63.65625 158.882812 62.605469 159.835938 C 61.554688 160.789062 60.527344 161.769531 59.523438 162.773438 C 58.523438 163.777344 57.542969 164.804688 56.59375 165.855469 C 55.640625 166.90625 54.714844 167.980469 53.8125 169.078125 C 52.914062 170.175781 52.042969 171.292969 51.195312 172.433594 C 50.351562 173.574219 49.535156 174.734375 48.746094 175.914062 C 47.957031 177.09375 47.199219 178.292969 46.46875 179.507812 C 45.742188 180.726562 45.039062 181.960938 44.371094 183.210938 C 43.703125 184.464844 43.066406 185.730469 42.457031 187.011719 C 41.851562 188.296875 41.273438 189.59375 40.730469 190.90625 C 40.1875 192.214844 39.675781 193.539062 39.199219 194.875 C 38.71875 196.210938 38.273438 197.558594 37.859375 198.917969 C 37.449219 200.273438 37.066406 201.640625 36.722656 203.019531 C 36.375 204.394531 36.0625 205.777344 35.785156 207.171875 C 35.507812 208.5625 35.265625 209.960938 35.054688 211.363281 C 34.84375 212.769531 34.667969 214.175781 34.527344 215.589844 C 34.386719 217 34.28125 218.417969 34.210938 219.835938 C 34.140625 221.253906 34.101562 222.671875 34.101562 224.089844 C 34.101562 252.269531 47.582031 277.324219 68.445312 293.195312 L 107.097656 254.503906 C 105.640625 253.847656 104.242188 253.089844 102.894531 252.234375 C 101.546875 251.375 100.269531 250.425781 99.058594 249.382812 C 97.847656 248.339844 96.71875 247.21875 95.671875 246.015625 C 94.621094 244.808594 93.664062 243.539062 92.796875 242.195312 C 91.929688 240.855469 91.164062 239.457031 90.496094 238.003906 C 89.832031 236.554688 89.269531 235.0625 88.820312 233.527344 C 88.367188 231.996094 88.027344 230.441406 87.796875 228.859375 C 87.566406 227.277344 87.453125 225.6875 87.449219 224.089844 C 87.449219 205.679688 102.421875 190.726562 120.78125 190.726562 C 134.296875 190.726562 145.914062 198.882812 151.167969 210.398438 L 189.820312 171.707031 C 173.96875 150.820312 148.933594 137.324219 120.785156 137.324219 Z M 120.78125 137.324219"/></g></svg>