<svg xmlns="http://www.w3.org/2000/svg" width="375" viewBox="0 0 375 375" height="375" version="1.0"><defs><clipPath id="a"><path d="M 166 106.601562 L 195 106.601562 L 195 135 L 166 135 Z M 166 106.601562"/></clipPath><clipPath id="b"><path d="M 83.617188 173 L 112 173 L 112 202 L 83.617188 202 Z M 83.617188 173"/></clipPath><clipPath id="c"><path d="M 167 240 L 196 240 L 196 268.601562 L 167 268.601562 Z M 167 240"/></clipPath><clipPath id="d"><path d="M 229 108 L 291.367188 108 L 291.367188 267 L 229 267 Z M 229 108"/></clipPath></defs><path fill="#54C7E3" d="M 230.011719 142.429688 L 208.171875 142.429688 C 206.828125 142.429688 205.738281 141.335938 205.738281 139.992188 L 205.738281 123.007812 L 194.277344 123.007812 L 194.277344 118.132812 L 208.171875 118.132812 C 209.515625 118.132812 210.605469 119.226562 210.605469 120.570312 L 210.605469 137.554688 L 230.011719 137.554688 L 230.011719 142.429688"/><g clip-path="url(#a)"><path fill="#54C7E3" d="M 180.398438 111.492188 C 175.398438 111.492188 171.332031 115.5625 171.332031 120.570312 C 171.332031 125.578125 175.398438 129.652344 180.398438 129.652344 C 185.398438 129.652344 189.46875 125.578125 189.46875 120.570312 C 189.46875 115.5625 185.398438 111.492188 180.398438 111.492188 Z M 180.398438 134.527344 C 172.714844 134.527344 166.464844 128.265625 166.464844 120.570312 C 166.464844 112.875 172.714844 106.617188 180.398438 106.617188 C 188.085938 106.617188 194.335938 112.875 194.335938 120.570312 C 194.335938 128.265625 188.085938 134.527344 180.398438 134.527344"/></g><path fill="#54C7E3" d="M 139.085938 143.09375 C 134.082031 143.09375 130.015625 147.167969 130.015625 152.171875 C 130.015625 157.179688 134.082031 161.253906 139.085938 161.253906 C 144.085938 161.253906 148.152344 157.179688 148.152344 152.171875 C 148.152344 147.167969 144.085938 143.09375 139.085938 143.09375 Z M 139.085938 166.128906 C 131.398438 166.128906 125.148438 159.867188 125.148438 152.171875 C 125.148438 144.476562 131.398438 138.21875 139.085938 138.21875 C 146.769531 138.21875 153.019531 144.476562 153.019531 152.171875 C 153.019531 159.867188 146.769531 166.128906 139.085938 166.128906"/><g clip-path="url(#b)"><path fill="#54C7E3" d="M 97.605469 178.121094 C 92.605469 178.121094 88.539062 182.195312 88.539062 187.203125 C 88.539062 192.207031 92.605469 196.28125 97.605469 196.28125 C 102.605469 196.28125 106.671875 192.207031 106.671875 187.203125 C 106.671875 182.195312 102.605469 178.121094 97.605469 178.121094 Z M 97.605469 201.15625 C 89.921875 201.15625 83.667969 194.894531 83.667969 187.203125 C 83.667969 179.507812 89.921875 173.246094 97.605469 173.246094 C 105.289062 173.246094 111.542969 179.507812 111.542969 187.203125 C 111.542969 194.894531 105.289062 201.15625 97.605469 201.15625"/></g><path fill="#54C7E3" d="M 230.210938 166.03125 L 190.335938 166.03125 C 188.992188 166.03125 187.902344 164.941406 187.902344 163.597656 L 187.902344 154.609375 L 150.585938 154.609375 L 150.585938 149.734375 L 190.335938 149.734375 C 191.679688 149.734375 192.769531 150.828125 192.769531 152.171875 L 192.769531 161.160156 L 230.210938 161.160156 L 230.210938 166.03125"/><path fill="#54C7E3" d="M 209.003906 257.101562 L 195.105469 257.101562 L 195.105469 252.226562 L 206.570312 252.226562 L 206.570312 235.242188 C 206.570312 233.898438 207.65625 232.804688 209.003906 232.804688 L 230.839844 232.804688 L 230.839844 237.679688 L 211.4375 237.679688 L 211.4375 254.664062 C 211.4375 256.007812 210.347656 257.101562 209.003906 257.101562"/><g clip-path="url(#c)"><path fill="#54C7E3" d="M 181.230469 245.582031 C 176.230469 245.582031 172.160156 249.65625 172.160156 254.664062 C 172.160156 259.671875 176.230469 263.742188 181.230469 263.742188 C 186.230469 263.742188 190.296875 259.671875 190.296875 254.664062 C 190.296875 249.65625 186.230469 245.582031 181.230469 245.582031 Z M 181.230469 268.617188 C 173.546875 268.617188 167.292969 262.359375 167.292969 254.664062 C 167.292969 246.96875 173.546875 240.707031 181.230469 240.707031 C 188.914062 240.707031 195.164062 246.96875 195.164062 254.664062 C 195.164062 262.359375 188.914062 268.617188 181.230469 268.617188"/></g><path fill="#54C7E3" d="M 139.5 213.980469 C 134.5 213.980469 130.429688 218.054688 130.429688 223.0625 C 130.429688 228.066406 134.5 232.140625 139.5 232.140625 C 144.5 232.140625 148.566406 228.066406 148.566406 223.0625 C 148.566406 218.054688 144.5 213.980469 139.5 213.980469 Z M 139.5 237.015625 C 131.816406 237.015625 125.5625 230.757812 125.5625 223.0625 C 125.5625 215.367188 131.816406 209.105469 139.5 209.105469 C 147.183594 209.105469 153.433594 215.367188 153.433594 223.0625 C 153.433594 230.757812 147.183594 237.015625 139.5 237.015625"/><path fill="#54C7E3" d="M 190.75 225.5 L 151 225.5 L 151 220.625 L 188.316406 220.625 L 188.316406 211.640625 C 188.316406 210.292969 189.40625 209.203125 190.75 209.203125 L 230.625 209.203125 L 230.625 214.074219 L 193.1875 214.074219 L 193.1875 223.0625 C 193.1875 224.40625 192.09375 225.5 190.75 225.5"/><path fill="#54C7E3" d="M 230.625 189.640625 L 109.105469 189.640625 L 109.105469 184.765625 L 230.625 184.765625 L 230.625 189.640625"/><g clip-path="url(#d)"><path fill="#F6AB1B" d="M 283.882812 204.910156 C 286.039062 202.605469 287.363281 199.507812 287.363281 196.097656 C 287.363281 193.953125 286.835938 191.933594 285.910156 190.152344 C 280.679688 190.527344 273.15625 192.085938 270.710938 197.777344 C 272.28125 201.476562 272.964844 209.222656 272.996094 209.5625 C 273.046875 210.160156 272.609375 210.683594 272.011719 210.734375 C 271.980469 210.738281 271.949219 210.738281 271.917969 210.738281 C 271.363281 210.738281 270.890625 210.3125 270.84375 209.75 C 270.835938 209.667969 270.105469 201.394531 268.566406 198.285156 C 267.210938 195.542969 260.355469 195.5625 258.0625 195.789062 C 257.472656 195.847656 256.9375 195.410156 256.878906 194.816406 C 256.824219 194.222656 257.257812 193.695312 257.851562 193.636719 C 258.769531 193.542969 265.941406 192.945312 269.289062 195.792969 C 272.355469 190.378906 279.265625 188.609375 284.566406 188.078125 C 284.453125 187.9375 284.335938 187.796875 284.21875 187.660156 C 287.175781 185.296875 289.070312 181.660156 289.070312 177.578125 C 289.070312 173.832031 287.472656 170.464844 284.925781 168.109375 C 279.910156 167.320312 271.75 166.855469 270.5625 170.5625 C 269.953125 172.472656 269.984375 173.976562 270.011719 175.433594 C 270.085938 179.117188 269.652344 181.570312 263.039062 184.613281 C 262.894531 184.683594 262.738281 184.714844 262.589844 184.714844 C 262.179688 184.714844 261.789062 184.480469 261.605469 184.082031 C 261.355469 183.542969 261.59375 182.898438 262.136719 182.648438 C 267.941406 179.980469 267.90625 178.378906 267.851562 175.476562 C 267.828125 174.183594 267.796875 172.617188 268.265625 170.742188 C 261.421875 166.867188 258.859375 169.554688 258.785156 169.636719 C 258.410156 170.089844 257.742188 170.160156 257.28125 169.789062 C 256.8125 169.417969 256.738281 168.734375 257.113281 168.269531 C 257.257812 168.089844 260.625 164.058594 269.0625 168.710938 C 271.503906 164.882812 278.71875 165.078125 283.5625 165.707031 C 284.351562 164.035156 284.800781 162.171875 284.800781 160.199219 C 284.800781 157.03125 283.660156 154.132812 281.765625 151.886719 C 281.609375 152.03125 281.410156 152.128906 281.1875 152.160156 C 280.886719 152.203125 279.617188 152.363281 278.023438 152.363281 C 275.785156 152.363281 272.914062 152.046875 271.214844 150.636719 C 270.832031 150.324219 270.523438 149.957031 270.289062 149.558594 C 267.09375 152.039062 264.164062 152.546875 262.308594 152.546875 C 261.101562 152.546875 260.34375 152.332031 260.265625 152.308594 C 259.691406 152.136719 259.367188 151.535156 259.535156 150.960938 C 259.707031 150.386719 260.308594 150.0625 260.878906 150.234375 C 260.921875 150.246094 265.011719 151.390625 269.777344 147.171875 C 269.996094 144.007812 269.8125 138.945312 268.390625 137.566406 C 268.15625 137.339844 267.921875 137.257812 267.601562 137.292969 C 267.007812 137.363281 266.472656 136.941406 266.402344 136.347656 C 266.332031 135.753906 266.757812 135.214844 267.351562 135.144531 C 268.3125 135.03125 269.195312 135.332031 269.898438 136.011719 C 272.53125 138.570312 272.007812 146.4375 271.90625 147.695312 C 271.949219 148.214844 272.167969 148.621094 272.585938 148.96875 C 274.441406 150.503906 279.210938 150.246094 280.894531 150.019531 C 281.089844 149.988281 281.277344 150.023438 281.445312 150.089844 C 281.953125 148.710938 282.234375 147.222656 282.234375 145.667969 C 282.234375 139.378906 277.734375 134.140625 271.785156 133 C 271.871094 132.390625 271.921875 131.769531 271.921875 131.136719 C 271.921875 124.011719 266.152344 118.238281 259.039062 118.238281 C 258.339844 118.238281 257.65625 118.296875 256.988281 118.402344 C 257.050781 118.636719 257.089844 118.90625 257.078125 119.230469 C 257.035156 120.765625 255.9375 122.589844 253.824219 124.65625 C 254.457031 125.03125 254.976562 125.558594 255.359375 126.230469 C 257.515625 130.023438 254.796875 137.335938 254.480469 138.15625 C 254.3125 138.585938 253.90625 138.847656 253.472656 138.847656 C 253.339844 138.847656 253.210938 138.824219 253.082031 138.777344 C 252.527344 138.558594 252.25 137.933594 252.464844 137.375 C 253.21875 135.410156 254.878906 129.761719 253.480469 127.300781 C 253.128906 126.683594 252.613281 126.335938 251.859375 126.207031 C 251.390625 126.128906 251.050781 125.761719 250.976562 125.320312 C 248.898438 124.753906 243.929688 123.789062 240.929688 126.441406 C 240.722656 126.625 240.46875 126.710938 240.214844 126.710938 C 239.914062 126.710938 239.617188 126.589844 239.402344 126.34375 C 239.007812 125.898438 239.050781 125.214844 239.5 124.820312 C 243.578125 121.214844 249.996094 122.753906 252.042969 123.375 C 254.84375 120.722656 255.050781 119.242188 254.882812 118.894531 C 254.53125 118.46875 254.558594 117.835938 254.957031 117.4375 C 255 117.398438 255.046875 117.363281 255.09375 117.328125 C 253.460938 112.078125 248.574219 108.265625 242.796875 108.265625 C 238.722656 108.265625 235.09375 110.160156 232.734375 113.113281 L 232.433594 113.5 C 230.851562 115.640625 229.914062 118.292969 229.914062 121.164062 C 229.914062 124.035156 229.652344 127.253906 229.914062 130.203125 L 229.964844 136.136719 C 234.222656 137.214844 239.890625 139.425781 243.898438 143.929688 C 248.730469 140.351562 258.128906 146.503906 258.550781 146.785156 C 259.050781 147.113281 259.1875 147.785156 258.855469 148.285156 C 258.648438 148.597656 258.304688 148.769531 257.953125 148.769531 C 257.75 148.769531 257.542969 148.710938 257.359375 148.589844 C 256.78125 148.207031 255.976562 147.722656 255.039062 147.234375 L 245.144531 145.703125 C 245.007812 145.808594 244.878906 145.929688 244.757812 146.058594 C 243.929688 148.667969 242.476562 155.394531 244.6875 158.53125 C 245.03125 159.015625 244.914062 159.691406 244.425781 160.039062 C 244.238281 160.171875 244.019531 160.234375 243.804688 160.234375 C 243.464844 160.234375 243.128906 160.074219 242.921875 159.777344 C 239.988281 155.617188 241.957031 147.910156 242.597656 145.730469 C 239.136719 141.617188 233.996094 139.492188 229.984375 138.402344 L 230.238281 167.816406 C 230.421875 167.8125 230.609375 167.855469 230.78125 167.953125 C 232.28125 168.808594 244.988281 176.238281 244.933594 183.023438 C 252.507812 187.601562 249.078125 200.613281 248.925781 201.179688 C 248.792969 201.660156 248.359375 201.976562 247.882812 201.976562 C 247.789062 201.976562 247.691406 201.964844 247.597656 201.941406 C 247.023438 201.78125 246.683594 201.1875 246.839844 200.613281 C 246.871094 200.492188 249.992188 188.632812 243.808594 184.871094 C 242.652344 185.613281 239.761719 188.027344 240.496094 193.230469 C 240.582031 193.820312 240.171875 194.371094 239.582031 194.453125 C 239.527344 194.460938 239.476562 194.464844 239.429688 194.464844 C 238.898438 194.464844 238.433594 194.074219 238.359375 193.535156 C 237.441406 187.058594 241.277344 183.933594 242.777344 182.980469 C 242.816406 178.546875 234.289062 172.542969 230.257812 170.152344 L 230.578125 207.1875 C 233.730469 207.488281 237.804688 208.320312 239.476562 210.578125 C 247.859375 209.902344 252.695312 216.203125 252.902344 216.480469 C 253.257812 216.957031 253.164062 217.636719 252.6875 217.996094 C 252.492188 218.140625 252.265625 218.210938 252.039062 218.210938 C 251.710938 218.210938 251.386719 218.0625 251.171875 217.777344 C 251.128906 217.722656 246.808594 212.09375 239.503906 212.746094 C 238.789062 213.820312 236.890625 217.230469 238.09375 221.707031 C 238.25 222.28125 237.910156 222.875 237.332031 223.03125 C 237.238281 223.058594 237.144531 223.070312 237.050781 223.070312 C 236.574219 223.070312 236.136719 222.75 236.007812 222.269531 C 234.632812 217.160156 236.652344 213.195312 237.613281 211.691406 C 236.480469 210.375 233.5 209.664062 230.59375 209.363281 L 230.921875 247.023438 C 230.371094 249.308594 230.703125 250.886719 230.703125 253.238281 C 230.703125 260.363281 236.472656 266.140625 243.585938 266.140625 C 244.769531 266.140625 245.917969 265.976562 247.007812 265.675781 C 248.09375 265.976562 249.238281 266.140625 250.425781 266.140625 C 255.964844 266.140625 260.6875 262.632812 262.503906 257.714844 C 261.078125 258.121094 258.304688 258.777344 255.375 258.777344 C 252.496094 258.777344 249.46875 258.140625 247.421875 256.003906 C 246.074219 257.316406 244.539062 258.109375 242.835938 258.355469 C 242.445312 258.410156 242.0625 258.4375 241.6875 258.4375 C 238.394531 258.4375 235.804688 256.472656 235.683594 256.378906 C 235.210938 256.015625 235.121094 255.339844 235.484375 254.867188 C 235.84375 254.394531 236.523438 254.300781 236.996094 254.664062 C 237.023438 254.683594 239.636719 256.640625 242.542969 256.210938 C 244.230469 255.960938 245.730469 254.941406 247.007812 253.179688 C 247.027344 253.15625 247.050781 253.132812 247.070312 253.109375 C 247.164062 251.214844 246.710938 247.746094 243.054688 244.246094 C 242.625 243.832031 242.609375 243.148438 243.023438 242.714844 C 243.433594 242.285156 244.117188 242.269531 244.550781 242.679688 C 249.792969 247.703125 249.402344 252.828125 249.0625 254.59375 C 253.097656 258.617188 262.65625 255.410156 262.789062 255.367188 C 262.90625 255.328125 263.023438 255.3125 263.140625 255.3125 C 263.140625 255.3125 263.140625 255.308594 263.140625 255.308594 C 263.195312 255.308594 263.25 255.3125 263.304688 255.3125 C 269.808594 255.3125 275.183594 250.484375 276.058594 244.214844 C 281.144531 242.488281 284.800781 237.671875 284.800781 232 C 284.800781 231.296875 284.746094 230.609375 284.636719 229.9375 C 283.339844 230.476562 280.101562 231.613281 275.710938 231.613281 C 272.148438 231.613281 267.828125 230.863281 263.171875 228.449219 C 261.582031 231.347656 258.695312 233.207031 254.6875 233.875 C 253.457031 234.082031 252.273438 234.148438 251.242188 234.148438 C 249.226562 234.148438 247.777344 233.890625 247.6875 233.871094 C 247.101562 233.765625 246.714844 233.203125 246.820312 232.613281 C 246.925781 232.027344 247.488281 231.636719 248.074219 231.742188 C 248.105469 231.75 251.128906 232.289062 254.382812 231.734375 C 258.511719 231.03125 261.082031 228.953125 262.023438 225.5625 C 264.367188 217.113281 258.273438 211.964844 258.003906 211.742188 C 257.542969 211.367188 257.476562 210.683594 257.851562 210.222656 C 258.230469 209.761719 258.910156 209.691406 259.371094 210.070312 C 259.679688 210.320312 266.835938 216.296875 264.105469 226.140625 C 264.074219 226.246094 264.039062 226.34375 264.007812 226.445312 C 275.011719 232.230469 284.183594 227.773438 284.273438 227.726562 C 284.539062 227.59375 284.835938 227.582031 285.097656 227.667969 C 288.839844 225.410156 291.34375 221.308594 291.34375 216.613281 C 291.34375 211.429688 288.289062 206.960938 283.882812 204.910156"/></g></svg>